<?xml version="1.0" standalone="no"?>
<!DOCTYPE svg PUBLIC "-//W3C//DTD SVG 1.1//EN" "http://www.w3.org/Graphics/SVG/1.1/DTD/svg11.dtd" >
<svg xmlns="http://www.w3.org/2000/svg">
<metadata></metadata>
<defs>
<font id="ultramagneticregular" horiz-adv-x="1169" >
<font-face units-per-em="2048" ascent="1638" descent="-410" />
<missing-glyph horiz-adv-x="514" />
<glyph horiz-adv-x="2048" />
<glyph horiz-adv-x="2048" />
<glyph unicode="&#xd;" horiz-adv-x="0" />
<glyph unicode=" "  horiz-adv-x="514" />
<glyph unicode="&#x09;" horiz-adv-x="514" />
<glyph unicode="&#xa0;" horiz-adv-x="514" />
<glyph unicode="!" horiz-adv-x="512" d="M115 1579q0 25 17.5 42t39.5 17h168q57 0 57 -59l-28 -1065q-2 -57 -56 -57h-110q-55 0 -58 55zM123 57v142q0 57 57 57h142q57 0 57 -57v-142q0 -57 -55 -57h-144q-57 0 -57 57z" />
<glyph unicode="&#x22;" horiz-adv-x="966" d="M115 1581q-2 23 15 40t42 17h160q25 0 42 -17t15 -40l-22 -379q-4 -55 -58 -55h-114q-53 0 -58 55zM575 1581q0 23 17.5 40t40.5 17h162q25 0 42 -17t15 -40l-23 -379q-4 -55 -57 -55h-117q-53 0 -55 55z" />
<glyph unicode="#" horiz-adv-x="1411" d="M115 811v104q0 57 51 58h182q55 0 55 55v21q0 55 -55 55h-182q-51 0 -51 59v103q0 59 51 59h184q53 0 53 55v201q0 57 60 57h104q57 0 58 -57v-201q0 -55 57 -55h18q55 0 56 55v201q0 57 53 57h106q55 0 56 -57v-201q0 -55 59 -55h211q57 0 57 -59v-103q0 -59 -57 -59 h-213q-57 0 -57 -55v-21q0 -55 57 -55h213q57 0 57 -58v-104q0 -57 -57 -57h-215q-55 0 -55 -56v-186q0 -59 -56 -59h-106q-53 0 -53 59v186q0 55 -60 56h-18q-53 0 -53 -56v-186q0 -59 -58 -59h-104q-23 0 -41.5 17t-18.5 42v186q0 55 -59 56h-178q-51 0 -51 57zM625 1028 q0 -55 57 -55h18q56 0 56 55v21q0 55 -60 55h-18q-53 0 -53 -55v-21z" />
<glyph unicode="$" horiz-adv-x="1054" d="M115 510q0 29 28 39l131 43q23 8 35 8q27 0 49 -51q72 -150 174 -150q57 0 98.5 31t41.5 86q0 98 -135 189q-125 82 -250 163q-135 109 -135 252q0 264 237 328q25 6 25 33v98q0 59 55 59h111q25 0 42 -18t17 -41v-98q0 -27 27 -33q211 -59 256 -260q8 -33 -25 -47 l-125 -58q-12 -4 -22 -4q-27 0 -48 33q-49 74 -67 92q-43 41 -107 41q-51 0 -91 -38t-40 -87q0 -51 138 -135q190 -117 256 -178q137 -131 137 -291q0 -279 -269 -336q-20 -4 -20 -33v-88q0 -59 -53 -59h-113q-25 0 -42 18.5t-17 40.5v101q0 27 -21 35q-92 33 -166.5 105.5 t-101.5 158.5q-10 37 -10 51z" />
<glyph unicode="%" horiz-adv-x="2058" d="M115 1145v184q0 137 97 234.5t237 97.5h88q139 0 236 -97.5t97 -234.5v-184q0 -137 -98 -235.5t-235 -98.5h-88q-139 0 -236.5 98.5t-97.5 235.5zM373 1149q0 -43 32.5 -76t75.5 -33h39q43 0 74 32t31 77v172q0 43 -30 74.5t-75 31.5h-39q-43 0 -75.5 -31.5t-32.5 -74.5 v-172zM684 31q0 8 4 20l461 1569q4 14 21.5 27.5t31.5 13.5h129q57 0 58 -53q-1 -11 -3 -21l-456 -1569q-4 -14 -22.5 -27.5t-33.5 -13.5h-133q-57 0 -57 54zM1188 311v185q0 137 98 234t236 97h88q139 0 236.5 -97t97.5 -234v-185q0 -139 -97.5 -236.5t-236.5 -97.5h-88 q-137 0 -235.5 97.5t-98.5 236.5zM1446 315q0 -43 32.5 -76.5t77.5 -33.5h39q43 0 73 32.5t30 77.5v172q0 43 -30 75t-73 32h-39q-45 0 -77.5 -32t-32.5 -75v-172z" />
<glyph unicode="&#x26;" horiz-adv-x="1267" d="M115 381v131q0 281 131 354q27 14 6 37q-102 102 -102 273v135q0 137 109.5 243.5t248.5 106.5h94q139 0 252 -110.5t113 -247.5v-64q0 -23 -18.5 -38t-41.5 -15h-159q-55 0 -56 43v59q0 51 -37 88t-88 37h-35q-51 0 -87.5 -37t-36.5 -88v-112q0 -70 34.5 -120t92.5 -50 h575q53 0 53 -54v-147q0 -59 -53 -60h-90q-57 0 -57 -59v-344q0 -47 34.5 -80t81.5 -33h41q57 0 58 -57v-137q0 -57 -58 -58h-59q-143 0 -244 82q-106 -82 -237 -82h-64q-166 0 -283.5 119t-117.5 285zM381 414q0 -74 39 -129.5t100 -55.5h47q68 0 111 68q37 58 37 121v268 q0 59 -58 59h-131q-59 0 -102 -48t-43 -119v-164z" />
<glyph unicode="'" horiz-adv-x="503" d="M115 1581q-2 23 15 40t42 17h160q25 0 42 -17t15 -40l-22 -379q-4 -55 -58 -55h-114q-53 0 -58 55z" />
<glyph unicode="(" horiz-adv-x="661" d="M115 799q0 348 188 968q14 47 47 48h150q18 0 34.5 -16t12.5 -32q-150 -522 -150 -999q0 -190 35 -442q39 -270 96 -451q4 -14 -11 -30.5t-34 -16.5h-161q-29 0 -46 47q-162 471 -161 924z" />
<glyph unicode=")" horiz-adv-x="661" d="M115 1767q-4 16 11 32t36 16h151q31 0 43 -48q191 -620 191 -968q0 -453 -162 -924q-16 -47 -45 -47h-162q-18 0 -33.5 16.5t-11.5 30.5q57 180 96 451q35 252 35 442q0 229 -39 500q-41 289 -110 499z" />
<glyph unicode="*" horiz-adv-x="993" d="M115 1288q-8 18 0 37l47 121q18 45 59 22l211 -110q6 -4 8 -2q4 0 2 10l-51 252q-4 16 10.5 29.5t34.5 13.5h131q18 0 33.5 -13.5t11.5 -29.5l-61 -252q-2 -10 2 -10q2 -2 8 2l225 115q6 4 17 4q35 0 43 -31l33 -125q14 -51 -25 -53l-252 -15q-18 0 -6 -12l176 -172 q12 -12 10 -33q-4 -18 -18 -28l-109 -78q-14 -10 -34 -8q-20 4 -27 22l-94 227q-6 18 -17 0l-112 -227q-8 -16 -29 -16q-20 -2 -37 10l-96 84q-16 12 -21 31q-4 18 11 30l200 158q8 6 7 10q-2 2 -11 2l-256 15q-18 2 -24 20z" />
<glyph unicode="+" horiz-adv-x="1187" d="M115 709v129q0 57 59 57h297v297q0 25 17.5 42t41.5 17h129q57 0 58 -59v-297h297q25 0 42 -17.5t17 -41.5v-129q0 -57 -59 -58h-297v-297q0 -25 -17.5 -42t-42.5 -17h-129q-57 0 -57 59v297h-297q-25 0 -42 17.5t-17 42.5z" />
<glyph unicode="," horiz-adv-x="516" d="M115 55v191q0 55 57 55h170q59 0 59 -55v-191q0 -20 -28 -86l-97 -215q-25 -55 -59 -55h-27q-27 0 -46 16.5t-11 38.5l76 213q10 33 -37 33q-57 0 -57 55z" />
<glyph unicode="-" horiz-adv-x="1064" d="M115 596v135q0 59 55 60h723q57 0 57 -60v-135q0 -53 -57 -53h-723q-55 0 -55 53z" />
<glyph unicode="." horiz-adv-x="520" d="M115 59v193q0 53 59 53h174q59 0 60 -53v-193q0 -23 -18.5 -41t-41.5 -18h-174q-25 0 -42 18.5t-17 40.5z" />
<glyph unicode="/" horiz-adv-x="931" d="M115 31q0 8 2 20l461 1569q4 14 22 27.5t33 13.5h127q59 0 59 -53q0 -11 -4 -21l-455 -1569q-4 -14 -22.5 -27.5t-32.5 -13.5h-133q-57 0 -57 54z" />
<glyph unicode="0" horiz-adv-x="1126" d="M115 422v792q0 184 130 315.5t314 131.5h10q182 0 312.5 -131t130.5 -316v-792q0 -184 -130 -314.5t-313 -130.5h-10q-184 0 -314 131.5t-130 313.5zM408 453q0 -92 48 -156t117 -64q70 0 118 64t48 156v737q0 92 -48 155.5t-118 63.5t-117.5 -63.5t-47.5 -155.5v-737z " />
<glyph unicode="1" horiz-adv-x="763" d="M115 1280v70q0 25 55 55q70 39 170 98l82 74q70 61 88 61h80q59 0 59 -53v-1530q0 -55 -59 -55h-170q-55 0 -55 55v1135q0 31 -29 31h-166q-55 0 -55 59z" />
<glyph unicode="2" horiz-adv-x="1095" d="M115 55v138q0 43 22 71q82 102 166 205q164 211 262 375q139 227 140 346v43q0 92 -43.5 143t-106.5 51q-61 0 -104 -57t-43 -137v-29q0 -55 -56 -55h-170q-23 0 -41 17.5t-18 37.5v53q0 166 118.5 285t286.5 119h54q168 0 284.5 -119t116.5 -285v-94q0 -186 -192 -469 q-78 -113 -310 -393q-25 -31 -24 -37q0 -18 22 -18h430q55 0 56 -53v-138q0 -55 -56 -55h-739q-55 0 -55 55z" />
<glyph unicode="3" horiz-adv-x="1099" d="M115 395v47q0 55 55 56h182q23 0 39.5 -17.5t16.5 -38.5v-24q0 -63 36 -121q43 -68 111 -68h23q63 0 101 55.5t38 129.5v164q0 72 -43 119.5t-101 47.5h-77q-53 0 -54 60v147q0 53 54 54h77q57 0 94.5 50t37.5 120v112q0 51 -38 88t-89 37h-46q-51 0 -87.5 -37t-36.5 -88 v-59q0 -43 -56 -43h-159q-25 0 -42.5 15.5t-17.5 37.5v64q0 137 111.5 247.5t251.5 110.5h96q139 0 248.5 -106.5t109.5 -243.5v-135q0 -170 -102 -273q-23 -23 4 -37q133 -74 133 -311v-174q0 -166 -117.5 -285t-285.5 -119h-64q-174 0 -293 136q-111 127 -110 282z" />
<glyph unicode="4" horiz-adv-x="1161" d="M92 467v154q0 49 23 90l516 874q31 53 59 53h178q57 0 58 -53v-913q0 -25 28 -25h82q55 0 56 -55v-125q0 -53 -56 -53h-82q-29 0 -28 -31v-328q0 -55 -58 -55h-157q-55 0 -56 55v328q0 31 -26 31h-486q-51 0 -51 53zM362 655q2 -14 21 -14h246q26 0 26 31v450 q0 18 -12 19q-8 0 -16 -15l-262 -448q-6 -10 -3 -23z" />
<glyph unicode="5" horiz-adv-x="1064" d="M115 309v123q0 57 55 57h168q55 0 55 -57v-18q0 -98 21 -138q31 -57 118 -57q74 0 115 57q39 51 39 138v295q0 221 -154 221q-92 0 -139 -107q-16 -37 -51 -37h-156q-23 0 -43 17.5t-20 40.5v741q0 23 18.5 38t40.5 15h668q55 0 55 -53v-147q0 -55 -55 -56h-440 q-31 0 -31 -28v-244q0 -33 24 -20q123 59 199 59q145 0 246.5 -88t101.5 -238v-487q0 -143 -88 -248q-96 -111 -246 -111h-167q-139 0 -236.5 97.5t-97.5 234.5z" />
<glyph unicode="6" horiz-adv-x="1101" d="M115 381v876q0 168 118.5 286t284.5 118h47q186 0 291 -118t105 -296q0 -53 -56 -53h-162q-57 0 -57 53v45q0 51 -39 89t-92 38h-23q-51 0 -95 -53t-44 -115v-274q0 -8 8 -12q8 -6 15 0q55 49 97 65.5t114 16.5q160 0 260 -112t100 -280v-274q0 -180 -114.5 -292 t-284.5 -112h-70q-166 0 -284.5 119t-118.5 285zM401 391q0 -55 38 -104t89 -49h50q51 0 89 49t38 104v283q0 51 -37 88t-90 37h-50q-51 0 -89 -49.5t-38 -102.5v-256z" />
<glyph unicode="7" horiz-adv-x="980" d="M45 1432v153q0 53 53 53h733q57 0 58 -53v-127q0 -27 -12 -76l-328 -1327q-14 -55 -55 -55h-201q-55 0 -41 55l326 1295q8 29 -17 28h-463q-53 0 -53 54z" />
<glyph unicode="8" horiz-adv-x="1095" d="M115 373v143q0 186 143 305q20 18 0 39q-117 119 -117 275v131q0 164 116 279.5t280 115.5h22q164 0 279.5 -115.5t115.5 -279.5v-131q0 -158 -112 -277q-18 -20 0 -35q141 -117 141 -307v-143q0 -164 -113.5 -280t-277.5 -116h-82q-164 0 -279.5 116t-115.5 280z M397 362q0 -61 44 -106t106 -45h8q61 0 107.5 45t46.5 106v209q0 61 -46.5 105.5t-107.5 44.5h-8q-63 0 -106.5 -44t-43.5 -106v-209zM408 1090q0 -51 34.5 -86t85.5 -35h45q51 0 88 36t37 85v213q0 49 -36.5 84.5t-88.5 35.5h-45q-51 0 -85.5 -34.5t-34.5 -85.5v-213z" />
<glyph unicode="9" horiz-adv-x="1095" d="M115 926v331q0 162 120.5 283t286.5 121h43q168 0 293 -142.5t125 -342.5v-799q0 -166 -119 -283t-286 -117h-46q-168 0 -283.5 117t-115.5 283v33q0 51 53 51h162q53 0 53 -51q0 -78 43 -129.5t111 -51.5q63 0 108.5 45t45.5 107v293q0 18 -15 18q-4 0 -26 -22 q-82 -78 -215 -78q-137 0 -237.5 98t-100.5 236zM389 983q0 -66 45 -112t107 -46h14q61 0 107.5 59.5t46.5 125.5v217q0 66 -46.5 122t-107.5 56h-14q-61 0 -106.5 -56.5t-45.5 -121.5v-244z" />
<glyph unicode=":" horiz-adv-x="520" d="M115 63v193q0 55 59 55h174q59 0 60 -55v-193q0 -23 -18.5 -41t-41.5 -18h-174q-25 0 -42 18.5t-17 40.5zM115 805v190q0 55 59 56h174q59 0 60 -56v-190q0 -25 -18.5 -42.5t-41.5 -17.5h-174q-25 0 -42 17.5t-17 42.5z" />
<glyph unicode=";" horiz-adv-x="520" d="M115 55v191q0 55 57 55h170q59 0 59 -55v-191q0 -20 -28 -86l-97 -215q-25 -55 -59 -55h-27q-27 0 -46 16.5t-11 38.5l76 213q10 33 -37 33q-57 0 -57 55zM115 805v190q0 55 59 56h174q59 0 60 -56v-190q0 -25 -18.5 -42.5t-41.5 -17.5h-174q-25 0 -42 17.5t-17 42.5z " />
<glyph unicode="&#x3c;" horiz-adv-x="901" d="M98 692q0 25 17 41l518 518q16 16 41 17q25 0 41 -17l94 -88q16 -16 16 -41t-16 -41l-369 -366q-23 -23 0 -45l369 -369q16 -16 16 -39t-16 -41l-90 -94q-14 -16 -39 -16q-27 0 -43 16l-522 524q-16 16 -17 41z" />
<glyph unicode="=" horiz-adv-x="1132" d="M115 350v133q0 59 55 60h793q57 0 57 -60v-133q0 -53 -57 -53h-793q-55 0 -55 53zM115 844v133q0 59 55 59h793q57 0 57 -59v-133q0 -53 -57 -53h-793q-55 0 -55 53z" />
<glyph unicode="&#x3e;" horiz-adv-x="901" d="M98 262q0 23 17 39l366 369q25 23 0 45l-366 366q-16 16 -17 41q0 25 17 41l94 88q16 16 41 17q25 0 41 -17l518 -518q16 -16 16 -41t-16 -41l-524 -524q-16 -16 -41 -16t-41 16l-88 94q-16 18 -17 41z" />
<glyph unicode="?" horiz-adv-x="1087" d="M115 1204v53q0 166 118.5 285t284.5 119h55q166 0 283 -119t117 -285v-53q0 -186 -99 -323q-27 -39 -206 -217q-18 -14 -35 -27q-31 -29 -31 -62v-79q0 -55 -53 -56h-156q-55 0 -55 56v149q0 45 22 74q92 78 183 155q152 152 151 316v43q0 92 -42 143t-105 51 q-61 0 -105.5 -57t-44.5 -137v-29q0 -55 -55 -55h-168q-23 0 -41 17.5t-18 37.5zM324 63v193q0 55 59 55h174q59 0 59 -55v-193q0 -23 -17 -41t-42 -18h-174q-23 0 -41 18.5t-18 40.5z" />
<glyph unicode="@" horiz-adv-x="1964" d="M137 813q0 381 257 636t638 255q328 0 557 -205q238 -210 238 -534q0 -268 -147.5 -420t-413.5 -152q-63 0 -111.5 39t-48.5 100q-31 -55 -103.5 -90.5t-138.5 -35.5q-133 0 -209 96q-72 90 -71 239q0 164 188 340q184 170 348 170q211 0 211 -217v-409q0 -45 33 -45 q88 0 168 118q72 109 72 203q0 276 -146 438q-152 168 -426 168q-295 0 -483.5 -198.5t-188.5 -495.5q0 -281 204 -476.5t487 -195.5q49 0 145 19.5t135 19.5q37 0 45 -26q2 -8 2 -56q0 -72 -131 -106q-90 -25 -196 -25q-381 0 -641 230q-272 240 -273 616zM793 741 q0 -137 125 -137q80 0 150.5 54.5t70.5 132.5v204q0 57 -52 58q-90 0 -192 -108.5t-102 -203.5z" />
<glyph unicode="A" horiz-adv-x="1171" d="M70 59l301 1522q12 57 57 57h293q45 0 57 -57l324 -1522q2 -6 2 -12q0 -16 -12 -29q-16 -18 -39 -18h-185q-41 0 -53 59l-51 242q-10 53 -53 53h-250q-51 0 -60 -53l-43 -242q-12 -59 -59 -59h-182q-23 0 -37 18q-11 14 -11 31q0 5 1 10zM461 684q-2 -9 -2 -17 q0 -42 47 -42h133q23 0 38 17q12 13 12 32q0 5 -1 10l-96 537q-8 43 -23 43q-14 0 -20 -43z" />
<glyph unicode="B" horiz-adv-x="1181" d="M115 59v1522q0 57 59 57h354q231 0 363 -120q125 -113 125 -297q0 -199 -148 -314q-18 -14 -18 -30t18 -29q199 -138 199 -371q0 -197 -147.5 -337t-354.5 -140h-391q-25 0 -42 17.5t-17 41.5zM397 317q0 -57 60 -57h112q76 0 129.5 66.5t53.5 162.5q0 92 -69 169 t-146 77h-80q-59 0 -60 -57v-361zM401 1036q0 -23 18.5 -41t41.5 -18h86q72 0 123 63.5t51 145.5q0 80 -50 133t-124 53h-86q-59 0 -60 -55v-281z" />
<glyph unicode="C" horiz-adv-x="1163" d="M115 436v768q0 188 134 322.5t324 134.5h19q188 0 320 -134t132 -323v-69q0 -20 -17 -38t-40 -18h-172q-23 0 -41 17.5t-18 38.5v24q0 94 -48.5 160.5t-119.5 66.5q-74 0 -127 -66.5t-53 -160.5v-692q0 -96 53 -162.5t127 -66.5t126 66.5t52 162.5v53q0 57 53 58h172 q57 0 58 -58v-84q0 -188 -134.5 -323.5t-322.5 -135.5h-19q-188 0 -323 135.5t-135 323.5z" />
<glyph unicode="D" horiz-adv-x="1150" d="M115 59v1522q0 57 57 57h408q190 0 323 -134t133 -322v-725q0 -188 -133 -322.5t-323 -134.5h-408q-23 0 -40 17.5t-17 41.5zM399 311q0 -25 18.5 -42t41.5 -17h61q94 0 163 66.5t69 160.5v674q0 94 -69 161.5t-163 67.5h-61q-59 0 -60 -57v-1014z" />
<glyph unicode="E" horiz-adv-x="1015" d="M115 59v1522q0 57 59 57h672q59 0 59 -57v-143q0 -25 -18.5 -42.5t-40.5 -17.5h-387q-59 0 -60 -57v-279q0 -55 60 -55h293q59 0 59 -57v-139q0 -25 -17.5 -42.5t-41.5 -17.5h-293q-59 0 -60 -57v-346q0 -57 60 -58h407q23 0 41.5 -18.5t18.5 -40.5v-152q0 -25 -18.5 -42 t-41.5 -17h-692q-23 0 -41 18.5t-18 40.5z" />
<glyph unicode="F" horiz-adv-x="974" d="M115 59v1522q0 23 18.5 40t40.5 17h674q59 0 59 -57v-143q0 -25 -18.5 -42.5t-40.5 -17.5h-391q-23 0 -41.5 -17.5t-18.5 -39.5v-279q0 -55 60 -55h299q23 0 41 -17.5t18 -39.5v-139q0 -25 -17.5 -42.5t-41.5 -17.5h-303q-55 0 -56 -57v-615q0 -59 -57 -59h-166 q-25 0 -42 17.5t-17 41.5z" />
<glyph unicode="G" horiz-adv-x="1165" d="M115 442v760q0 188 134 323.5t322 135.5h19q188 0 320 -135t132 -324v-67q0 -59 -57 -60h-158q-23 0 -41 20.5t-18 39.5v24q0 92 -54.5 159.5t-127.5 67.5q-76 0 -129.5 -66.5t-53.5 -160.5v-684q0 -98 48.5 -160.5t134.5 -62.5q182 0 182 223v68q0 23 -17.5 40t-39.5 17 h-84q-23 0 -41.5 18.5t-18.5 40.5v111q0 23 17.5 41t42.5 18h366q23 0 40.5 -20.5t17.5 -38.5v-711q0 -59 -58 -59h-30q-39 0 -60 59l-10 25q-10 29 -21 29q-10 0 -30 -29q-82 -106 -234 -107h-37q-205 0 -330.5 135.5t-125.5 329.5z" />
<glyph unicode="H" horiz-adv-x="1132" d="M115 59v1522q0 57 57 57h170q57 0 57 -57v-575q0 -57 56 -58h219q59 0 59 58v575q0 23 17.5 40t40.5 17h172q57 0 57 -57v-1522q0 -59 -57 -59h-172q-23 0 -40.5 19.5t-17.5 39.5v559q0 25 -17.5 42.5t-41.5 17.5h-219q-55 0 -56 -60v-559q0 -20 -17 -39.5t-40 -19.5 h-170q-57 0 -57 59z" />
<glyph unicode="I" horiz-adv-x="565" d="M137 59v1522q0 57 58 57h176q57 0 57 -57v-1522q0 -59 -57 -59h-176q-57 0 -58 59z" />
<glyph unicode="J" horiz-adv-x="794" d="M68 57v172q0 55 57 56h129q47 0 82 33.5t35 80.5v1182q0 57 51 57h176q25 0 42 -18t17 -39v-1237q0 -154 -96 -249t-250 -95h-186q-57 0 -57 57z" />
<glyph unicode="K" horiz-adv-x="1183" d="M115 55v1530q0 53 51 53h182q53 0 53 -53v-495q0 -31 17 -31q14 0 31 28l282 496q31 55 57 55h205q45 0 45 -39q0 -8 -6 -16l-315 -539q-8 -16 -2 -32l387 -957q2 -8 2 -16q0 -39 -41 -39h-209q-33 0 -55 55l-250 643q-8 20 -21 21q-12 0 -22 -21l-94 -159 q-10 -18 -11 -37v-447q0 -55 -53 -55h-182q-51 0 -51 55z" />
<glyph unicode="L" horiz-adv-x="952" d="M115 55v1530q0 53 51 53h182q55 0 55 -53v-1268q0 -53 56 -53h395q53 0 53 -59v-150q0 -55 -53 -55h-688q-51 0 -51 55z" />
<glyph unicode="M" horiz-adv-x="1488" d="M115 55v1530q0 53 51 53h315q47 0 62 -61l182 -772q12 -55 27 -55q12 0 24 55l168 780q10 53 53 53h324q55 0 55 -53v-1530q0 -55 -55 -55h-158q-57 0 -57 55v926q0 18 -14 18q-16 0 -21 -18l-221 -926q-12 -55 -55 -55h-95q-41 0 -53 55l-215 928q-6 23 -20 23 q-20 0 -21 -23v-928q0 -55 -57 -55h-168q-51 0 -51 55z" />
<glyph unicode="N" horiz-adv-x="1202" d="M115 55v1528q0 55 51 55h168q45 0 69 -57l377 -842q8 -14 21 -14q12 0 12 23v833q0 23 18.5 40t40.5 17h160q55 0 55 -57v-1526q0 -55 -55 -55h-160q-37 0 -59 51l-391 871q-6 16 -16 16q-14 0 -15 -23v-860q0 -55 -57 -55h-168q-51 0 -51 55z" />
<glyph unicode="O" d="M115 418v807q0 182 128 309t310 127h63q182 0 310.5 -127t128.5 -309v-807q0 -182 -128 -311.5t-311 -129.5h-63q-182 0 -310 129.5t-128 311.5zM412 461q0 -88 53 -151.5t125 -63.5t123 62.5t51 152.5v710q0 92 -51 156t-123 64t-125 -64.5t-53 -155.5v-710z" />
<glyph unicode="P" horiz-adv-x="1112" d="M115 55v1530q0 53 51 53h432q182 0 308 -128t126 -310v-92q0 -182 -126 -310t-308 -128h-143q-55 0 -56 -56v-559q0 -55 -57 -55h-176q-51 0 -51 55zM403 969q0 -23 19.5 -38.5t40.5 -15.5h112q68 0 118 48t50 118v140q0 68 -49 114.5t-119 46.5h-112q-20 0 -40 -15 t-20 -38v-360z" />
<glyph unicode="Q" d="M115 414v807q0 180 128 310t310 130h63q182 0 310.5 -130t128.5 -310v-807q0 -160 -99.5 -284t-250.5 -153l-31 -274q-8 -68 -60 -68h-49q-53 0 -59 68l-33 274q-156 27 -257 151t-101 286zM414 440q0 -90 52 -155.5t124 -65.5q70 0 120 65.5t50 155.5v750 q0 92 -49 155.5t-121 63.5t-124 -64.5t-52 -154.5v-750z" />
<glyph unicode="R" horiz-adv-x="1138" d="M115 55v1530q0 53 51 53h420q184 0 311 -116q129 -123 129 -312v-80q0 -244 -207 -370q-10 -6 -2 -29l238 -676q4 -8 4 -14q0 -41 -45 -41h-178q-35 0 -56 55l-209 596q-14 41 -41 41h-90q-51 0 -51 -55v-582q0 -20 -16.5 -37.5t-38.5 -17.5h-168q-51 0 -51 55zM389 987 q0 -53 51 -53h154q70 0 118 46t48 114v131q0 68 -48 114.5t-118 46.5h-158q-47 0 -47 -55v-344z" />
<glyph unicode="S" horiz-adv-x="1146" d="M92 410q-3 11 -3 21q0 32 36 44l151 51q10 2 19 2q41 0 53 -39q70 -256 242 -256q86 0 134 48.5t48 130.5q0 109 -168 254q-154 129 -309 258q-168 166 -168 327q0 193 131 305q119 104 295 105q215 0 348 -168q68 -86 103 -201q2 -8 2 -18q0 -37 -37 -49l-133 -43 q-8 -4 -17 -4q-37 0 -51 36q-92 217 -215 218q-66 0 -114 -55.5t-48 -125.5q0 -84 172 -223q279 -225 320 -266q172 -176 172 -350q0 -201 -130 -320t-335 -119q-242 0 -375 170q-74 94 -123 267z" />
<glyph unicode="T" horiz-adv-x="1087" d="M45 1446v139q0 53 55 53h885q57 0 57 -53v-139q0 -55 -57 -55h-252q-20 0 -37.5 -16.5t-17.5 -37.5v-1282q0 -55 -51 -55h-168q-55 0 -56 55v1282q0 53 -51 54h-252q-55 0 -55 55z" />
<glyph unicode="U" horiz-adv-x="1173" d="M115 418v1167q0 53 51 53h176q53 0 53 -53v-1134q0 -90 57.5 -156t133.5 -66q74 0 130 65.5t56 156.5v1134q0 53 55 53h177q23 0 40 -16t17 -37v-1167q0 -180 -133 -310.5t-316 -130.5h-51q-182 0 -314 130.5t-132 310.5z" />
<glyph unicode="V" horiz-adv-x="1126" d="M68 1575q-2 11 -2 21q0 42 45 42h170q47 0 55 -43l213 -1079q2 -18 14 -18q14 0 17 18l211 1079q8 43 57 43h168q43 0 43 -41q0 -10 -4 -22l-312 -1520q-12 -55 -59 -55h-244q-43 0 -53 55z" />
<glyph unicode="W" horiz-adv-x="1634" d="M70 1585q-1 4 -1 8q0 15 13 29q16 16 39 16h158q45 0 55 -53l162 -868q6 -23 22 -23q14 0 19 23l168 866q10 55 53 55h143q43 0 55 -55l177 -852q4 -23 20 -22q18 0 23 22l120 854q6 53 56 53h159q23 0 41 -16q14 -13 14 -30q0 -4 -1 -7l-254 -1530q-10 -55 -56 -55h-168 q-43 0 -53 55l-174 873q-12 61 -26 61t-27 -61l-172 -873q-10 -55 -51 -55h-168q-41 0 -51 55z" />
<glyph unicode="X" horiz-adv-x="1165" d="M45 39q0 8 4 16l361 789q12 27 0 53l-320 688q-4 8 -4 17q0 36 41 36h2h195q33 0 57 -53l184 -405q12 -27 23 0l174 405q23 53 59 53h197q45 0 45 -36q0 -8 -4 -17l-322 -688q-12 -29 -2 -53l381 -789q4 -8 4 -16q0 -39 -45 -39h-196q-27 0 -54 55l-237 492q-12 25 -23 0 l-221 -492q-25 -55 -57 -55h-197q-45 0 -45 39z" />
<glyph unicode="Y" horiz-adv-x="1187" d="M68 1599q0 39 49 39h198q35 0 56 -53l215 -553q12 -33 28 -33t29 33l178 553q16 53 53 53h201q45 0 45 -39q0 -8 -2 -14l-352 -909q-12 -29 -12 -49v-572q0 -55 -54 -55h-178q-55 0 -55 55v572q0 20 -12 49l-383 909q-4 6 -4 14z" />
<glyph unicode="Z" horiz-adv-x="1081" d="M92 55v111q0 45 10 67l560 1125q4 6 4 10q0 23 -29 23h-447q-55 0 -55 51v143q0 53 55 53h740q55 0 55 -53v-112q0 -43 -12 -66l-555 -1112q-16 -35 18 -35h498q55 0 55 -49v-156q0 -55 -55 -55h-791q-51 0 -51 55z" />
<glyph unicode="[" horiz-adv-x="651" d="M115 -158v1954q0 20 19.5 39.5t39.5 19.5h305q57 0 58 -59v-76q0 -59 -58 -59h-84q-37 0 -37 -37v-1610q0 -37 37 -37h84q57 0 58 -59v-76q0 -59 -58 -59h-305q-23 0 -41 18.5t-18 40.5z" />
<glyph unicode="\" horiz-adv-x="931" d="M115 1608q0 53 57 53h127q16 0 33.5 -13.5t21.5 -27.5l461 -1569q4 -12 4 -20q0 -53 -59 -54h-131q-16 0 -33.5 13.5t-22.5 27.5l-456 1569q-2 10 -2 21z" />
<glyph unicode="]" horiz-adv-x="651" d="M115 -82q0 59 57 59h84q37 0 37 37v1610q0 37 -37 37h-84q-57 0 -57 59v76q0 59 57 59h305q20 0 40 -19t20 -40v-1954q0 -23 -18.5 -41t-41.5 -18h-305q-57 0 -57 59v76z" />
<glyph unicode="^" horiz-adv-x="897" d="M92 1268q-31 33 0 63l324 330q33 33 65 0l326 -324q12 -14 12 -34q0 -21 -12 -35l-76 -76q-35 -35 -69 0l-211 217l-215 -221q-14 -14 -35 -14q-20 0 -35 14z" />
<glyph unicode="_" horiz-adv-x="1116" d="M0 -231q0 25 18.5 42t40.5 17h1002q55 0 55 -59v-84q0 -53 -55 -54h-1002q-59 0 -59 54v84z" />
<glyph unicode="`" horiz-adv-x="933" d="M195 1624q0 20 10 39l78 121q16 27 49 26q16 0 30 -10l429 -313q27 -18 26 -51q0 -17 -10 -29l-2 -4q-27 -39 -82 -17l-504 195q-25 10 -24 43z" />
<glyph unicode="a" horiz-adv-x="1019" d="M102 291v45q0 152 144 272q80 68 268 164q143 74 143 107v90q0 41 -28.5 70.5t-69.5 29.5h-88q-41 0 -70.5 -29.5t-29.5 -70.5v-33q0 -57 -58 -57h-137q-57 0 -57 57v41q0 127 91 212t220 85h168q129 0 219 -85t90 -212v-823q1 -27 21 -97q2 -9 2 -17q0 -40 -51 -40h-138 q-41 0 -56 53t-32 53q4 0 -77.5 -63t-163.5 -63q-143 0 -226.5 82.5t-83.5 228.5zM369 336q0 -102 98 -103q63 0 123 41q67 46 67 107v197q0 28 -17 28q-8 0 -19 -6q-123 -61 -166 -96q-86 -72 -86 -168z" />
<glyph unicode="b" horiz-adv-x="1030" d="M115 57v1547q0 57 57 57h150q57 0 57 -57v-412q0 -33 14 -33q10 0 29 19l61 61q49 35 129 35h66q98 0 167.5 -69.5t69.5 -168.5v-813q0 -98 -69.5 -172t-167.5 -74h-66q-70 0 -120 33q-31 20 -62 62q-27 33 -33 32q-10 0 -37 -65q-23 -39 -55 -39h-133q-57 0 -57 57z M381 317q0 -35 37 -66.5t61 -31.5h78q41 0 67.5 28.5t26.5 69.5v617q0 41 -26.5 67.5t-67.5 26.5h-78q-23 0 -57 -27q-41 -33 -41 -67v-617z" />
<glyph unicode="c" horiz-adv-x="1040" d="M115 350v561q0 154 108.5 258.5t263.5 104.5h66q156 0 264.5 -104.5t108.5 -258.5v-32q0 -55 -58 -56h-141q-57 0 -57 56q0 70 -42 119t-98 49q-57 0 -98 -49.5t-41 -118.5v-492q0 -72 38 -118t101 -46q59 0 99.5 46t40.5 118v8q0 57 57 58h141q57 0 58 -58v-45 q0 -156 -109.5 -264.5t-263.5 -108.5h-66q-156 0 -264 109t-108 264z" />
<glyph unicode="d" horiz-adv-x="1021" d="M115 223v813q0 98 69.5 168t167.5 70h62q90 0 131 -25q8 -6 55 -59q18 -20 31 -21q16 0 16 33v402q0 57 58 57h145q57 0 57 -57v-1547q0 -57 -57 -57h-145q-57 0 -58 57q0 20 -14 21q-14 0 -33 -21q-45 -43 -74 -59q-43 -20 -112 -21h-62q-98 0 -167.5 74t-69.5 172z M375 317q0 -41 28.5 -69.5t69.5 -28.5h74q35 0 66.5 39t31.5 59v617q0 23 -31.5 58.5t-66.5 35.5h-74q-41 0 -69.5 -26.5t-28.5 -67.5v-617z" />
<glyph unicode="e" horiz-adv-x="1019" d="M115 340v571q0 154 87 258.5t232 104.5h148q141 0 230 -117t89 -272v-271q0 -57 -57 -57h-455q-29 0 -29 -27v-208q0 -41 30 -72t71 -31h86q41 0 71.5 31t30.5 72v20q0 57 58 57h141q57 0 57 -57q0 -160 -101.5 -262.5t-262.5 -102.5h-64q-164 0 -263 101.5t-99 261.5z M360 791q0 -27 29 -27h242q26 0 26 27v147q0 43 -27.5 70.5t-70.5 27.5h-98q-41 0 -71 -27.5t-30 -70.5v-147z" />
<glyph unicode="f" horiz-adv-x="792" d="M68 1071v123q0 57 57 57h84q27 0 27 29v117q0 109 76.5 186.5t185.5 77.5h170q57 0 57 -57v-105q0 -57 -57 -57h-62q-47 0 -78.5 -32t-31.5 -77v-53q0 -29 24 -29h127q57 0 58 -57v-123q0 -57 -58 -57h-127q-27 0 -26 -27v-930q0 -57 -58 -57h-145q-57 0 -58 57v930 q0 27 -24 27h-84q-57 0 -57 57z" />
<glyph unicode="g" horiz-adv-x="1112" d="M115 -184q0 63 32 106q23 29 64 51q33 20 33 27q0 -2 -52.5 48t-52.5 114q0 76 49 121q2 2 76 49q18 10 19 20q0 6 -19 21q-137 98 -137 268v297q0 141 100.5 238.5t241.5 97.5h74q131 0 254 -125q18 -18 26 0q20 43 60.5 72.5t72.5 29.5q47 0 48 -59v-131q0 -52 -56 -52 h-10q-9 1 -17 1q-49 0 -49 -27q0 -12 5.5 -37.5t5.5 -38.5v-266q0 -139 -99.5 -239.5t-240.5 -100.5h-111q-25 0 -46 -21.5t-21 -46.5t20.5 -43t46.5 -18h221q369 0 369 -262q0 -125 -91 -202t-255 -77h-293q-119 0 -193.5 53.5t-74.5 131.5zM360 -84q0 -37 32 -66.5 t77 -29.5h211q45 0 76 33q24 28 24 57q0 33 -28 57q-39 33 -117 33h-166q-45 0 -77 -25.5t-32 -58.5zM387 625q0 -45 32 -77t77 -32h24q45 0 78 32t33 77v301q0 43 -33 74.5t-78 31.5h-24q-45 0 -77 -31.5t-32 -74.5v-301z" />
<glyph unicode="h" horiz-adv-x="1001" d="M115 57v1547q0 57 57 57h145q57 0 58 -57v-445q0 -18 20 -18q4 0 46 38t85 60q63 35 129 35h41q80 0 135.5 -54.5t55.5 -132.5v-1030q0 -57 -58 -57h-141q-57 0 -57 57v865q0 104 -96 104q-57 0 -108.5 -43t-51.5 -104v-822q0 -57 -58 -57h-145q-57 0 -57 57z" />
<glyph unicode="i" horiz-adv-x="530" d="M137 57v1137q0 57 58 57h141q57 0 57 -57v-1137q0 -57 -57 -57h-141q-57 0 -58 57zM137 1458v146q0 57 58 57h141q57 0 57 -57v-146q0 -57 -57 -57h-141q-57 0 -58 57z" />
<glyph unicode="j" horiz-adv-x="552" d="M-68 -178q0 57 56 57h65q41 0 72 30t31 73v1212q0 57 57 57h145q57 0 58 -57v-1315q0 -102 -72 -175t-174 -73h-182q-55 0 -56 58v133zM156 1458v146q0 57 57 57h145q57 0 58 -57v-146q0 -57 -58 -57h-145q-57 0 -57 57z" />
<glyph unicode="k" horiz-adv-x="1015" d="M115 57v1547q0 57 57 57h147q57 0 58 -57v-773q0 -18 10 -18q8 0 16 14l244 387q25 37 58 37h149q49 0 49 -24q0 -12 -12 -33l-211 -346q-14 -25 -2 -60l270 -743q4 -11 4 -19q0 -26 -37 -26h-188q-29 0 -41 39l-174 522q-10 29 -31 0l-82 -115q-23 -33 -22 -77v-312 q0 -57 -58 -57h-147q-57 0 -57 57z" />
<glyph unicode="l" horiz-adv-x="538" d="M137 57v1547q0 57 58 57h149q57 0 57 -57v-1547q0 -57 -57 -57h-149q-57 0 -58 57z" />
<glyph unicode="m" horiz-adv-x="1505" d="M115 57v1137q0 57 57 57h143q57 0 58 -57v-20q0 -25 14 -25q12 0 39 22q80 63 88 70q57 33 139 33q80 0 121 -23q33 -18 70 -75q16 -27 30 -27q8 0 46 33q43 41 84 59q66 33 145 33q113 0 177.5 -65.5t64.5 -172.5v-979q0 -57 -58 -57h-143q-57 0 -57 57v865 q0 114 -81 114h-1q-53 0 -109.5 -48t-56.5 -93v-838q0 -57 -58 -57h-141q-57 0 -57 57v865q0 120 -85 120h-1q-53 0 -111.5 -43t-58.5 -90v-852q0 -57 -58 -57h-143q-57 0 -57 57z" />
<glyph unicode="n" horiz-adv-x="1011" d="M115 57v1137q0 57 57 57h145q57 0 58 -57v-27q0 -23 12 -22q14 0 37 24q100 104 246 105q100 0 163.5 -66.5t63.5 -171.5v-979q0 -57 -55 -57h-146q-57 0 -57 57v881q0 106 -86 106q-59 0 -118.5 -43t-59.5 -86v-858q0 -57 -58 -57h-145q-57 0 -57 57z" />
<glyph unicode="o" horiz-adv-x="985" d="M115 311v633q0 137 97 233.5t237 96.5h88q139 0 236 -96.5t97 -233.5v-633q0 -139 -98 -236.5t-235 -97.5h-88q-139 0 -236.5 97.5t-97.5 236.5zM362 315q0 -43 34 -76.5t77 -33.5h47q43 0 74 32.5t31 77.5v619q0 45 -31 76.5t-74 31.5h-47q-45 0 -78 -31.5t-33 -76.5 v-619z" />
<glyph unicode="p" horiz-adv-x="1005" d="M115 -311v1505q0 57 57 57h154q23 0 41 -28.5t45 -28.5q12 0 70.5 40t129.5 40q121 0 200 -91t79 -231v-639q0 -147 -72 -237q-76 -98 -207 -99q-61 0 -119.5 38t-68.5 38q-45 0 -45 -45v-319q0 -57 -57 -58h-150q-57 0 -57 58zM379 295q0 -37 49 -69.5t102 -32.5 q97 0 97 106v649q0 106 -95 107q-53 0 -103 -33t-50 -68v-659z" />
<glyph unicode="q" horiz-adv-x="997" d="M115 322v630q0 141 75.5 231.5t200.5 90.5q68 0 125 -39t74 -39q29 0 48 27.5t42 27.5h147q57 0 58 -57v-1505q0 -57 -58 -58h-143q-57 0 -57 58v334q0 38 -45 38h-2q-4 0 -66.5 -42t-122.5 -42q-129 0 -205 103q-72 96 -71 242zM377 309q0 -104 104 -104q53 0 99.5 29.5 t46.5 68.5v651q0 37 -50.5 69t-103.5 32q-96 0 -96 -107v-639z" />
<glyph unicode="r" horiz-adv-x="724" d="M115 57v1137q0 57 57 57h150q57 0 57 -57v-33q0 -31 14 -31q10 0 25 13q37 35 74 71q55 47 118 60q8 2 15 2q19 0 33 -12q20 -16 20 -45v-175q0 -25 -17.5 -42t-39.5 -15q-35 4 -66 4q-176 0 -176 -145v-789q0 -57 -57 -57h-150q-57 0 -57 57z" />
<glyph unicode="s" horiz-adv-x="995" d="M92 319q0 29 29 39l135 48q20 8 33 8q18 0 47 -56q35 -70 59 -96q45 -51 113 -51q59 0 100 29.5t41 87.5q0 96 -135 188q-127 80 -252 162q-135 109 -135 252q0 168 106 258q100 86 271 86q150 0 258 -75t137 -200q8 -35 -25 -49l-126 -55q-12 -6 -23 -6q-27 0 -47 33 q-47 74 -68 94q-41 39 -106 39q-51 0 -90 -37t-39 -88q0 -49 137 -133q190 -119 254 -181q137 -128 137 -288q0 -180 -115 -271q-104 -80 -280 -80q-127 0 -250 85t-156 206q-10 39 -10 51z" />
<glyph unicode="t" horiz-adv-x="835" d="M80 1071v123q0 57 57 57h86q29 0 29 29v199q0 57 57 57h144q57 0 57 -57v-199q0 -29 25 -29h163q57 0 58 -57v-123q0 -57 -58 -57h-161q-27 0 -27 -27v-647q0 -111 98 -111h90q57 0 58 -57v-115q0 -57 -58 -57h-217q-100 0 -165.5 69.5t-65.5 190.5v727q0 27 -27 27h-86 q-57 0 -57 57z" />
<glyph unicode="u" horiz-adv-x="1007" d="M115 201v993q0 57 57 57h145q57 0 58 -57v-836q0 -120 110 -120h2q49 0 98.5 38.5t49.5 85.5v832q0 57 57 57h144q57 0 57 -57v-1137q0 -57 -57 -57h-146q-35 0 -55.5 49t-48.5 49q-20 0 -81 -60.5t-118 -60.5h-76q-74 0 -135 72t-61 152z" />
<glyph unicode="v" horiz-adv-x="960" d="M70 1182q-2 8 -2 16q0 20 12 34q16 19 47 19h135q16 0 34.5 -14t20.5 -31l144 -719q4 -25 16 -24q8 0 15 24l161 719q10 45 56 45h127q57 0 57 -53q0 -8 -2 -16l-283 -1137q-10 -45 -47 -45h-182q-39 0 -49 45z" />
<glyph unicode="w" horiz-adv-x="1495" d="M70 1182q-2 8 -2 15q0 19 12 34q16 20 47 20h147q41 0 52 -43l141 -602q8 -39 18 -39t19 39l145 602q10 43 53 43h115q41 0 53 -43l150 -606q10 -39 18 -39q10 0 19 39l127 606q8 43 47 43h137q31 0 46 -20q11 -14 11 -33q0 -8 -2 -16l-260 -1137q-10 -45 -59 -45h-137 q-39 0 -49 45l-130 643q-6 33 -24 33q-16 0 -23 -33l-135 -643q-10 -45 -49 -45h-174q-35 0 -45 45z" />
<glyph unicode="x" horiz-adv-x="1007" d="M68 39q0 14 10 33l276 569q12 29 -2 59l-250 476q-10 20 -10 36q0 39 55 39h138q35 0 49 -28l137 -275q16 -33 27 -33q12 0 26 33l135 275q14 28 48 28h2h133q61 0 61 -37q0 -14 -10 -32l-252 -482q-12 -27 2 -59l291 -580q4 -8 4 -18q0 -43 -45 -43h-152q-35 0 -51 31 l-174 342q-10 18 -18 18q-10 0 -21 -18l-160 -340q-16 -33 -49 -33h-143q-57 0 -57 39z" />
<glyph unicode="y" horiz-adv-x="976" d="M45 1198q0 53 57 53h140q16 0 33.5 -14t21.5 -29l164 -747q8 -33 20 -33t21 33l157 747q8 43 54 43h137q57 0 57 -53q0 -8 -2 -18l-291 -1127q-68 -268 -178 -358q-78 -63 -229 -64h-86q-57 0 -58 58v129q0 57 58 57h37q82 0 129 64q41 55 41 122v17l-281 1104 q-2 8 -2 16z" />
<glyph unicode="z" horiz-adv-x="1021" d="M92 57v113q0 49 23 84l471 713q8 12 8 20q0 23 -37 23h-360q-57 0 -58 57v127q0 57 58 57h667q57 0 58 -57v-104q0 -55 -27 -95l-457 -702q-10 -16 -4 -29q6 -12 31 -12h407q57 0 58 -57v-138q0 -57 -58 -57h-722q-57 0 -58 57z" />
<glyph unicode="{" horiz-adv-x="841" d="M115 768v84q0 45 45 45q63 0 112.5 67.5t49.5 139.5v414q0 121 85 205.5t205 84.5h68q47 0 47 -45v-80q0 -45 -47 -45h-27q-47 0 -79.5 -32.5t-32.5 -79.5v-436q0 -166 -148 -259q-27 -16 0 -28q72 -31 113 -110t41 -163v-440q0 -47 32.5 -80t77.5 -33h23q47 0 47 -43 v-77q0 -43 -47 -43h-68q-121 0 -205.5 84t-84.5 204v414q0 72 -49.5 138.5t-112.5 66.5q-45 0 -45 47z" />
<glyph unicode="|" horiz-adv-x="493" d="M137 -172v2005q0 57 58 57h104q57 0 57 -57v-2005q0 -57 -57 -57h-104q-57 0 -58 57z" />
<glyph unicode="}" horiz-adv-x="841" d="M115 -66q0 43 45 43h22q47 0 80 33t33 80v440q0 84 40 163t114 110q27 12 0 28q-150 92 -150 259v436q0 47 -33 79.5t-80 32.5h-26q-45 0 -45 45v80q0 45 45 45h69q121 0 205 -85t84 -205v-414q0 -72 49 -139.5t113 -67.5q47 0 47 -45v-84q0 -47 -47 -47 q-63 0 -112.5 -66.5t-49.5 -138.5v-414q0 -121 -84 -204.5t-205 -83.5h-69q-45 0 -45 43v77z" />
<glyph unicode="~" horiz-adv-x="1363" d="M115 471q0 10 6 23q154 238 352 237q94 0 233.5 -69.5t200.5 -69.5q66 0 123 73.5t78 73.5q10 0 22 -8q35 -18 70 -37q49 -31 49 -59q0 -13 -8 -25q-74 -104 -129 -151q-88 -72 -201 -72q-92 0 -244.5 69.5t-197.5 69.5q-76 0 -136.5 -82t-80.5 -82q-12 0 -25 11 q-35 18 -67 39q-45 31 -45 59z" />
<glyph unicode="&#xa1;" horiz-adv-x="512" d="M115 59l28 1065q2 57 56 58h110q55 0 58 -56l30 -1067q0 -25 -17.5 -42t-39.5 -17h-168q-59 0 -57 59zM133 1440v141q0 57 55 57h144q57 0 57 -57v-141q0 -57 -57 -58h-142q-57 0 -57 58z" />
<glyph unicode="&#xa2;" horiz-adv-x="1054" d="M115 539v563q0 127 77.5 224t198.5 128q23 6 23 31v94q0 59 55 59h111q25 0 42 -18t17 -41v-94q0 -27 23 -33q117 -35 190.5 -131t73.5 -219v-33q0 -57 -58 -57h-141q-57 0 -57 57q0 70 -42 118t-98 48q-57 0 -98 -48t-41 -118v-494q0 -70 38 -115.5t101 -45.5 q59 0 99.5 46t40.5 115v11q0 55 57 55h141q57 0 58 -55v-47q0 -125 -74 -223.5t-190 -133.5q-23 -6 -23 -32v-91q0 -59 -53 -59h-113q-25 0 -42 18.5t-17 40.5v84q0 29 -21 35q-121 33 -199.5 133.5t-78.5 227.5z" />
<glyph unicode="&#xa3;" horiz-adv-x="1368" d="M115 760v112q0 25 17.5 42.5t41.5 17.5h94q35 0 35 35l-2 237q-2 188 134 322.5t325 134.5h18q186 0 308 -132t122 -325v-69q0 -20 -17 -38t-40 -18h-150q-23 0 -41 17.5t-18 38.5v24q0 94 -48 160.5t-120 66.5q-74 0 -128 -67.5t-54 -159.5v-194q0 -33 35 -33h323 q59 0 60 -55v-111q0 -25 -18.5 -42t-41.5 -17h-325q-33 0 -33 -33v-357q0 -53 53 -53h555q53 0 53 -59v-150q0 -55 -53 -55h-846q-53 0 -53 55v619q0 33 -33 33h-94q-59 0 -59 53z" />
<glyph unicode="&#xa4;" horiz-adv-x="1239" d="M0 598v113q0 53 59 53h101q31 0 33 35q2 31 -33 30h-97q-25 0 -42 18.5t-17 41.5v112q0 55 59 56h95q33 0 32 33v114q0 188 135.5 322.5t325.5 134.5h19q188 0 319 -134t131 -323v-69q0 -20 -16.5 -38t-38.5 -18h-172q-23 0 -41 17.5t-18 38.5v24q0 94 -48.5 160.5 t-121.5 66.5q-74 0 -126.5 -66.5t-54.5 -160.5v-69q-2 -33 35 -33h254q25 0 45.5 -16.5t13.5 -39.5l-22 -112q-12 -59 -59 -60h-234q-35 0 -33 -30q2 -35 33 -35h191q27 0 46 -16.5t13 -36.5l-23 -113q-12 -59 -59 -59h-164q-37 0 -37 -33v-39q0 -96 53.5 -162.5 t127.5 -66.5t126 66.5t52 162.5v53q0 57 55 58h172q57 0 57 -58v-84q0 -188 -134 -323.5t-322 -135.5h-19q-188 0 -321 134.5t-140 324.5v70q-2 33 -34 33h-97q-23 0 -41 18t-18 41z" />
<glyph unicode="&#xa5;" horiz-adv-x="1280" d="M94 442v111q0 55 60 55h327q33 0 35 33t-35 33h-325q-23 0 -41.5 18.5t-18.5 40.5v113q0 53 60 53h209q49 0 34 33l-282 653q-2 6 -2 14q0 39 47 39h205q35 0 53 -53l211 -553q12 -33 28 -33q18 0 29 35l174 551q16 53 56 53h202q45 0 45 -39q0 -8 -2 -14l-252 -653 q-12 -33 35 -33h209q59 0 59 -53v-113q0 -23 -18 -41t-41 -18h-326q-35 0 -32 -33q2 -33 32 -33h328q59 0 60 -55v-111q0 -25 -17.5 -42t-42.5 -17h-323q-35 0 -35 -33v-295q0 -55 -54 -55h-178q-55 0 -55 55v295q0 33 -33 33h-325q-25 0 -42.5 17.5t-17.5 41.5z" />
<glyph unicode="&#xa6;" horiz-adv-x="493" d="M115 -195v840q0 57 57 57h150q57 0 57 -57v-840q0 -57 -57 -57h-150q-57 0 -57 57zM115 993v840q0 57 57 57h150q57 0 57 -57v-840q0 -57 -57 -57h-150q-57 0 -57 57z" />
<glyph unicode="&#xa7;" horiz-adv-x="1198" d="M41 -293q-14 51 35 68l162 49q55 18 71 -37q70 -256 234 -256q88 0 136 48t48 130q0 111 -170 232q-285 207 -313 233q-168 164 -168 377q0 301 235 381q-162 162 -161 319q0 410 430 410q326 0 456 -369q14 -53 -32 -67l-140 -43q-8 -4 -16 -4q-37 0 -53 36 q-90 217 -215 218q-66 0 -114 -55.5t-48 -125.5q0 -94 172 -233q301 -242 321 -260q172 -172 172 -346q0 -268 -219 -383q145 -158 146 -320q0 -201 -130 -319.5t-337 -118.5q-375 0 -502 436zM344 551q0 -98 123 -203q80 -57 160 -115q172 7 172 179q0 72 -121 186 q-78 76 -172 139q-66 0 -114 -58t-48 -128z" />
<glyph unicode="&#xa8;" horiz-adv-x="985" d="M115 1438v190q0 55 59 55h174q59 0 60 -55v-190q0 -25 -18.5 -42.5t-41.5 -17.5h-174q-25 0 -42 17.5t-17 42.5zM573 1438v190q0 55 60 55h174q59 0 59 -55v-190q0 -25 -17.5 -42.5t-41.5 -17.5h-174q-23 0 -41.5 17.5t-18.5 42.5z" />
<glyph unicode="&#xa9;" horiz-adv-x="1912" d="M115 819q0 348 246.5 595t594.5 247t595 -247t247 -595t-246.5 -595t-595.5 -247q-348 0 -594.5 247t-246.5 595zM285 819q0 -279 196.5 -475.5t474.5 -196.5q279 0 475.5 196.5t196.5 475.5t-196.5 475.5t-475.5 196.5t-475 -196.5t-196 -475.5zM676 590v461 q0 113 81 193.5t193 80.5h13q113 0 191.5 -81t78.5 -193v-41q0 -35 -33 -35h-104q-35 0 -35 35v12q0 57 -28.5 97t-71.5 40q-45 0 -77 -40t-32 -97v-416q0 -55 31.5 -95t77.5 -40q43 0 74.5 40t31.5 95v35q0 33 33 33h102q35 0 35 -33v-51q0 -115 -81 -196t-193 -81h-13 q-113 0 -193.5 81t-80.5 196z" />
<glyph unicode="&#xaa;" horiz-adv-x="1075" d="M115 676v45q0 152 143 274q80 68 268 164q143 74 144 107v88q0 41 -30 71.5t-69 30.5h-90q-39 0 -69.5 -30.5t-30.5 -71.5v-31q0 -57 -57 -57h-138q-55 0 -55 57v41q0 125 90 211t219 86h170q129 0 218.5 -85t89.5 -212v-825q0 -27 20 -97q12 -55 -47 -55h-137 q-41 0 -56.5 53.5t-31.5 53.5q4 0 -78 -66t-166 -66q-141 0 -224 84t-83 230zM379 721q0 -102 98 -103q63 0 128 44.5t65 105.5v197q0 41 -37 22q-125 -63 -168 -98q-86 -70 -86 -168z" />
<glyph unicode="&#xab;" horiz-adv-x="1607" d="M98 692q0 25 17 41l518 518q16 16 41 17q25 0 41 -17l94 -88q16 -16 16 -41t-16 -41l-369 -366q-23 -23 0 -45l369 -369q16 -16 16 -39t-16 -41l-90 -94q-14 -16 -39 -16q-27 0 -43 16l-522 524q-16 16 -17 41zM782 692q0 25 17 41l520 518q16 16 39 17q25 0 43 -17 l94 -88q16 -16 16 -41t-16 -41l-369 -366q-23 -23 0 -45l369 -369q16 -16 16 -39t-16 -41l-90 -94q-16 -16 -41 -16t-41 16l-524 524q-16 16 -17 41z" />
<glyph unicode="&#xac;" horiz-adv-x="1249" d="M115 686v152q0 55 51 55h917q51 0 52 -55v-389q0 -51 -52 -52h-180q-57 0 -57 52v126q0 51 -55 52h-625q-51 0 -51 59z" />
<glyph unicode="&#xad;" horiz-adv-x="1064" d="M115 596v135q0 59 55 60h723q57 0 57 -60v-135q0 -53 -57 -53h-723q-55 0 -55 53z" />
<glyph unicode="&#xae;" horiz-adv-x="1912" d="M115 819q0 348 246.5 595t594.5 247t595 -247t247 -595t-246.5 -595t-595.5 -247q-348 0 -594.5 247t-246.5 595zM285 819q0 -279 196.5 -475.5t474.5 -196.5q279 0 475.5 196.5t196.5 475.5t-196.5 475.5t-475.5 196.5t-475 -196.5t-196 -475.5zM705 360v918q0 33 30 33 h252q111 0 187.5 -72t76.5 -184v-49q0 -145 -125 -222q-6 -4 0 -18l144 -406q10 -33 -25 -32h-108q-20 0 -33 32l-125 359q-10 25 -25 24h-53q-33 0 -33 -32v-351q0 -33 -32 -32h-101q-31 0 -30 32zM868 920q0 -31 33 -31h90q43 0 72 27.5t29 68.5v78q0 41 -30 68.5 t-71 27.5h-94q-29 0 -29 -33v-206z" />
<glyph unicode="&#xaf;" horiz-adv-x="870" d="M80 1442v112q0 43 45 43h567q43 0 43 -43v-112q0 -45 -43 -45h-567q-45 0 -45 45z" />
<glyph unicode="&#xb0;" horiz-adv-x="987" d="M115 1282q0 156 110.5 267.5t268.5 111.5t268 -111.5t110 -267.5q0 -158 -110.5 -269.5t-267.5 -111.5q-158 0 -268.5 111.5t-110.5 269.5zM289 1282q0 -86 60.5 -145.5t144.5 -59.5q86 0 145 59.5t59 145.5q0 84 -59 144.5t-145 60.5q-84 0 -144.5 -60.5t-60.5 -144.5z " />
<glyph unicode="&#xb1;" horiz-adv-x="1187" d="M115 53v133q0 59 55 60h840q57 0 57 -60v-133q0 -53 -57 -53h-840q-55 0 -55 53zM115 731v131q0 55 59 56h297v296q0 25 17.5 42.5t41.5 17.5h129q57 0 58 -60v-296h297q25 0 42 -17.5t17 -42.5v-129q0 -57 -59 -57h-297v-297q0 -25 -17.5 -42.5t-42.5 -17.5h-129 q-57 0 -57 60v297h-297q-25 0 -42 17.5t-17 41.5z" />
<glyph unicode="&#xb4;" horiz-adv-x="933" d="M195 1436q0 33 26 51l428 313q14 10 31 10q33 0 51 -26l76 -121q10 -18 10 -39q0 -33 -24 -43l-504 -195q-55 -23 -82 17l-2 4q-10 12 -10 29z" />
<glyph unicode="&#xb6;" horiz-adv-x="1597" d="M115 1108v92q0 182 126 310t308 128h876q57 0 58 -53v-1530q0 -55 -53 -55h-166q-55 0 -56 55v1282q0 53 -53 54h-68q-20 0 -37.5 -16.5t-17.5 -37.5v-1282q0 -55 -51 -55h-176q-57 0 -57 55v559q0 55 -56 56h-143q-182 0 -308 128t-126 310zM403 1081q0 -70 49.5 -118 t118.5 -48h113q20 0 39.5 15.5t19.5 38.5v360q0 23 -19 38t-40 15h-113q-70 0 -119 -47t-49 -114v-140z" />
<glyph unicode="&#xb7;" horiz-adv-x="520" d="M115 651v191q0 55 59 55h174q59 0 60 -55v-191q0 -25 -18.5 -42t-41.5 -17h-174q-25 0 -42 17.5t-17 41.5z" />
<glyph unicode="&#xb8;" d="M297 -410q0 47 45 48q260 0 287 2q63 8 63 55q0 43 -78 51q-27 2 -186 2q-47 0 -47 47v205q0 45 47 45h49q43 0 43 -45v-131q35 0 103.5 9t99.5 9q149 1 149 -192q0 -115 -53 -158q-43 -37 -147 -37q-39 0 -148.5 8.5t-181.5 8.5q-45 0 -45 43v30z" />
<glyph unicode="&#xba;" horiz-adv-x="985" d="M115 696v633q0 137 97 234.5t237 97.5h88q139 0 236 -97.5t97 -234.5v-633q0 -137 -98 -235.5t-235 -98.5h-88q-139 0 -236.5 98.5t-97.5 235.5zM362 700q0 -43 34 -75.5t77 -32.5h47q43 0 74 32.5t31 75.5v621q0 43 -31 74.5t-74 31.5h-47q-45 0 -78 -31.5t-33 -74.5 v-621z" />
<glyph unicode="&#xbb;" horiz-adv-x="1607" d="M98 262q0 23 17 39l366 369q25 23 0 45l-366 366q-16 16 -17 41q0 25 17 41l94 88q16 16 41 17q25 0 41 -17l518 -518q16 -16 16 -41t-16 -41l-524 -524q-16 -16 -41 -16t-41 16l-88 94q-16 18 -17 41zM782 262q0 23 17 39l368 369q23 23 0 45l-368 366q-16 16 -17 41 q0 25 17 41l94 88q18 16 41 17q25 0 41 -17l520 -518q16 -16 16 -41t-16 -41l-524 -524q-16 -16 -41 -16t-41 16l-90 94q-16 18 -17 41z" />
<glyph unicode="&#xbf;" horiz-adv-x="1087" d="M115 410v51q0 188 96 323q29 39 209 217q18 14 35 29q29 27 28 60v81q0 53 56 54h155q55 0 56 -54v-151q0 -43 -23 -74q-92 -78 -182 -155q-152 -152 -152 -316v-43q0 -92 42 -143t106 -51q61 0 105 57t44 137v29q0 55 55 55h168q23 0 41.5 -16.5t18.5 -38.5v-51 q0 -168 -119 -287t-285 -119h-55q-166 0 -282.5 119t-116.5 287zM471 1409v193q0 23 17.5 41t41.5 18h175q23 0 41 -18.5t18 -40.5v-193q0 -55 -59 -55h-175q-59 0 -59 55z" />
<glyph unicode="&#xc0;" horiz-adv-x="1171" d="M70 59l301 1522q12 57 57 57h293q45 0 57 -57l324 -1522q6 -23 -9.5 -41t-39.5 -18h-185q-41 0 -53 59l-51 242q-10 53 -53 53h-250q-51 0 -60 -53l-43 -242q-12 -59 -59 -59h-182q-23 0 -37 18.5t-10 40.5zM242 2060q0 20 10 39l78 121q16 27 49 26q16 0 30 -10 l429 -313q27 -18 26 -51q0 -17 -10 -29l-2 -4q-27 -39 -82 -17l-504 195q-25 10 -24 43zM461 684q-10 -59 45 -59h133q23 0 38 17t11 42l-96 537q-8 43 -23 43q-14 0 -20 -43z" />
<glyph unicode="&#xc1;" horiz-adv-x="1171" d="M70 59l301 1522q12 57 57 57h293q45 0 57 -57l324 -1522q6 -23 -9.5 -41t-39.5 -18h-185q-41 0 -53 59l-51 242q-10 53 -53 53h-250q-51 0 -60 -53l-43 -242q-12 -59 -59 -59h-182q-23 0 -37 18.5t-10 40.5zM263 1891q0 33 26 51l428 313q14 10 31 10q33 0 51 -26 l76 -121q10 -18 10 -39q0 -33 -24 -43l-504 -195q-55 -23 -82 17l-2 4q-10 12 -10 29zM461 684q-10 -59 45 -59h133q23 0 38 17t11 42l-96 537q-8 43 -23 43q-14 0 -20 -43z" />
<glyph unicode="&#xc2;" horiz-adv-x="1171" d="M70 59l301 1522q12 57 57 57h293q45 0 57 -57l324 -1522q6 -23 -9.5 -41t-39.5 -18h-185q-41 0 -53 59l-51 242q-10 53 -53 53h-250q-51 0 -60 -53l-43 -242q-12 -59 -59 -59h-182q-23 0 -37 18.5t-10 40.5zM154 1849q0 20 26 53l236 285q25 29 53 29h215q29 0 49 -23 l242 -287q25 -29 25 -49q0 -43 -95 -43h-114q-45 0 -76 39l-113 135q-25 29 -49 0l-111 -133q-35 -41 -79 -41h-119q-90 0 -90 35zM461 684q-10 -59 45 -59h133q23 0 38 17t11 42l-96 537q-8 43 -23 43q-14 0 -20 -43z" />
<glyph unicode="&#xc3;" horiz-adv-x="1171" d="M70 59l301 1522q12 57 57 57h293q45 0 57 -57l324 -1522q6 -23 -9.5 -41t-39.5 -18h-185q-41 0 -53 59l-51 242q-10 53 -53 53h-250q-51 0 -60 -53l-43 -242q-12 -59 -59 -59h-182q-23 0 -37 18.5t-10 40.5zM182 1843q0 98 83 188.5t193 90.5q70 0 154 -45.5t117 -45.5 q45 0 77.5 29t32.5 72t47 43h60q43 0 43 -43q0 -117 -60 -199q-66 -90 -178 -90q-63 0 -164.5 43t-140.5 43q-35 0 -67.5 -29.5t-32.5 -56.5q0 -45 -43 -45h-78q-43 0 -43 45zM461 684q-10 -59 45 -59h133q23 0 38 17t11 42l-96 537q-8 43 -23 43q-14 0 -20 -43z" />
<glyph unicode="&#xc4;" horiz-adv-x="1171" d="M70 59l301 1522q12 57 57 57h293q45 0 57 -57l324 -1522q6 -23 -9.5 -41t-39.5 -18h-185q-41 0 -53 59l-51 242q-10 53 -53 53h-250q-51 0 -60 -53l-43 -242q-12 -59 -59 -59h-182q-23 0 -37 18.5t-10 40.5zM193 1899v190q0 55 59 55h174q59 0 60 -55v-190 q0 -25 -18.5 -42.5t-41.5 -17.5h-174q-25 0 -42 17.5t-17 42.5zM461 684q-10 -59 45 -59h133q23 0 38 17t11 42l-96 537q-8 43 -23 43q-14 0 -20 -43zM651 1899v190q0 55 60 55h174q59 0 59 -55v-190q0 -25 -17.5 -42.5t-41.5 -17.5h-174q-23 0 -41.5 17.5t-18.5 42.5z" />
<glyph unicode="&#xc5;" horiz-adv-x="1171" d="M70 59l301 1522q12 57 57 57h293q45 0 57 -57l324 -1522q6 -23 -9.5 -41t-39.5 -18h-185q-41 0 -53 59l-51 242q-10 53 -53 53h-250q-51 0 -60 -53l-43 -242q-12 -59 -59 -59h-182q-23 0 -37 18.5t-10 40.5zM330 1983v94q0 84 58.5 142.5t142.5 58.5h102 q84 0 143.5 -58.5t59.5 -142.5v-94q0 -84 -59.5 -143.5t-143.5 -59.5h-102q-84 0 -142.5 59.5t-58.5 143.5zM461 684q-10 -59 45 -59h133q23 0 38 17t11 42l-96 537q-8 43 -23 43q-14 0 -20 -43zM465 2007q0 -37 25.5 -62.5t62.5 -25.5h60q37 0 63.5 25.5t26.5 62.5v51 q0 37 -27 64t-63 27h-60q-37 0 -62.5 -27t-25.5 -64v-51z" />
<glyph unicode="&#xc6;" horiz-adv-x="1583" d="M70 59l301 1522q12 57 57 57h961q59 0 59 -57v-143q0 -25 -17.5 -42.5t-41.5 -17.5h-500q-29 0 -47.5 -17.5t-12.5 -39.5l62 -279q12 -55 59 -55h344q59 0 60 -57v-139q0 -25 -17.5 -42.5t-42.5 -17.5h-262q-25 0 -44 -17.5t-15 -39.5l74 -346q12 -57 59 -58h303 q25 0 42 -18.5t17 -40.5v-152q0 -25 -17 -42t-42 -17h-535q-43 0 -55 59l-55 242q-12 53 -53 53h-256q-49 0 -60 -53l-37 -242q-10 -59 -59 -59h-182q-23 0 -37 18.5t-10 40.5zM483 684q-8 -59 45 -59h115q25 0 39 17t10 42l-88 506q-8 43 -22 43q-16 0 -23 -43z" />
<glyph unicode="&#xc7;" horiz-adv-x="1163" d="M115 436v768q0 188 134 322.5t324 134.5h19q188 0 320 -134t132 -323v-69q0 -20 -17 -38t-40 -18h-172q-23 0 -41 17.5t-18 38.5v24q0 94 -48.5 160.5t-119.5 66.5q-74 0 -127 -66.5t-53 -160.5v-692q0 -96 53 -162.5t127 -66.5t126 66.5t52 162.5v53q0 57 53 58h172 q57 0 58 -58v-84q0 -188 -134.5 -323.5t-322.5 -135.5h-25v-108q31 0 95.5 7t93.5 7q162 0 162 -188q0 -115 -48.5 -155t-152.5 -40q-37 0 -147.5 8.5t-180.5 8.5q-47 0 -47 43v30q0 47 47 48q258 0 285 2q63 8 63 55q0 43 -78 51q-25 2 -186 2q-45 0 -45 47v207 q-139 45 -226 165t-87 269z" />
<glyph unicode="&#xc8;" horiz-adv-x="1040" d="M115 59v1522q0 57 59 57h672q59 0 59 -57v-143q0 -25 -18.5 -42.5t-40.5 -17.5h-387q-59 0 -60 -57v-279q0 -55 60 -55h293q59 0 59 -57v-139q0 -25 -17.5 -42.5t-41.5 -17.5h-293q-59 0 -60 -57v-346q0 -57 60 -58h407q23 0 41.5 -18.5t18.5 -40.5v-152q0 -25 -18.5 -42 t-41.5 -17h-692q-23 0 -41 18.5t-18 40.5zM195 2060q0 20 10 39l78 121q16 27 49 26q16 0 30 -10l429 -313q27 -18 26 -51q0 -17 -10 -29l-2 -4q-27 -39 -82 -17l-504 195q-25 10 -24 43z" />
<glyph unicode="&#xc9;" horiz-adv-x="1040" d="M115 59v1522q0 57 59 57h672q59 0 59 -57v-143q0 -25 -18.5 -42.5t-40.5 -17.5h-387q-59 0 -60 -57v-279q0 -55 60 -55h293q59 0 59 -57v-139q0 -25 -17.5 -42.5t-41.5 -17.5h-293q-59 0 -60 -57v-346q0 -57 60 -58h407q23 0 41.5 -18.5t18.5 -40.5v-152q0 -25 -18.5 -42 t-41.5 -17h-692q-23 0 -41 18.5t-18 40.5zM195 1891q0 33 26 51l428 313q14 10 31 10q33 0 51 -26l76 -121q10 -18 10 -39q0 -33 -24 -43l-504 -195q-55 -23 -82 17l-2 4q-10 12 -10 29z" />
<glyph unicode="&#xca;" horiz-adv-x="1040" d="M86 1849q0 20 26 53l236 285q25 29 53 29h215q29 0 49 -23l242 -287q25 -29 25 -49q0 -43 -95 -43h-114q-45 0 -76 39l-113 135q-25 29 -49 0l-111 -133q-35 -41 -79 -41h-119q-90 0 -90 35zM115 59v1522q0 57 59 57h672q59 0 59 -57v-143q0 -25 -18.5 -42.5t-40.5 -17.5 h-387q-59 0 -60 -57v-279q0 -55 60 -55h293q59 0 59 -57v-139q0 -25 -17.5 -42.5t-41.5 -17.5h-293q-59 0 -60 -57v-346q0 -57 60 -58h407q23 0 41.5 -18.5t18.5 -40.5v-152q0 -25 -18.5 -42t-41.5 -17h-692q-23 0 -41 18.5t-18 40.5z" />
<glyph unicode="&#xcb;" horiz-adv-x="1040" d="M115 59v1522q0 57 59 57h672q59 0 59 -57v-143q0 -25 -18.5 -42.5t-40.5 -17.5h-387q-59 0 -60 -57v-279q0 -55 60 -55h293q59 0 59 -57v-139q0 -25 -17.5 -42.5t-41.5 -17.5h-293q-59 0 -60 -57v-346q0 -57 60 -58h407q23 0 41.5 -18.5t18.5 -40.5v-152q0 -25 -18.5 -42 t-41.5 -17h-692q-23 0 -41 18.5t-18 40.5zM129 1899v190q0 55 59 55h174q59 0 60 -55v-190q0 -25 -18.5 -42.5t-41.5 -17.5h-174q-25 0 -42 17.5t-17 42.5zM587 1899v190q0 55 60 55h174q59 0 59 -55v-190q0 -25 -17.5 -42.5t-41.5 -17.5h-174q-23 0 -41.5 17.5t-18.5 42.5z " />
<glyph unicode="&#xcc;" horiz-adv-x="518" d="M-32 2060q0 20 10 39l78 121q16 27 49 26q16 0 30 -10l429 -313q27 -18 26 -51q0 -17 -10 -29l-2 -4q-27 -39 -82 -17l-504 195q-25 10 -24 43zM137 59v1522q0 57 58 57h176q57 0 57 -57v-1522q0 -59 -57 -59h-176q-57 0 -58 59z" />
<glyph unicode="&#xcd;" horiz-adv-x="518" d="M-22 1891q0 33 26 51l428 313q14 10 31 10q33 0 51 -26l76 -121q10 -18 10 -39q0 -33 -24 -43l-504 -195q-55 -23 -82 17l-2 4q-10 12 -10 29zM137 59v1522q0 57 58 57h176q57 0 57 -57v-1522q0 -59 -57 -59h-176q-57 0 -58 59z" />
<glyph unicode="&#xce;" horiz-adv-x="518" d="M-143 1849q0 20 26 53l236 285q25 29 53 29h215q29 0 49 -23l242 -287q25 -29 25 -49q0 -43 -95 -43h-114q-45 0 -76 39l-113 135q-25 29 -49 0l-111 -133q-35 -41 -79 -41h-119q-90 0 -90 35zM137 59v1522q0 57 58 57h176q57 0 57 -57v-1522q0 -59 -57 -59h-176 q-57 0 -58 59z" />
<glyph unicode="&#xcf;" horiz-adv-x="518" d="M-121 1899v190q0 55 59 55h174q59 0 60 -55v-190q0 -25 -18.5 -42.5t-41.5 -17.5h-174q-25 0 -42 17.5t-17 42.5zM137 59v1522q0 57 58 57h176q57 0 57 -57v-1522q0 -59 -57 -59h-176q-57 0 -58 59zM337 1899v190q0 55 60 55h174q59 0 59 -55v-190q0 -25 -17.5 -42.5 t-41.5 -17.5h-174q-23 0 -41.5 17.5t-18.5 42.5z" />
<glyph unicode="&#xd0;" horiz-adv-x="1290" d="M115 786v117q0 45 43 45h100v633q0 57 53 57h408q190 0 323.5 -134t133.5 -322v-725q0 -188 -133.5 -322.5t-323.5 -134.5h-408q-53 0 -53 59v680h-100q-43 0 -43 47zM543 311q0 -59 55 -59h61q94 0 163 66.5t69 160.5v674q0 94 -68.5 161.5t-163.5 67.5h-61 q-55 0 -55 -57v-377h172q45 0 45 -45v-117q0 -47 -45 -47h-172v-428z" />
<glyph unicode="&#xd1;" horiz-adv-x="1202" d="M115 55v1528q0 55 51 55h168q45 0 69 -57l377 -842q8 -14 21 -14q12 0 12 23v833q0 23 18.5 40t40.5 17h160q55 0 55 -57v-1526q0 -55 -55 -55h-160q-37 0 -59 51l-391 871q-6 16 -16 16q-14 0 -15 -23v-860q0 -55 -57 -55h-168q-51 0 -51 55zM205 1843q0 98 83 188.5 t193 90.5q70 0 154 -45.5t117 -45.5q45 0 77.5 29t32.5 72t47 43h60q43 0 43 -43q0 -117 -60 -199q-66 -90 -178 -90q-63 0 -164.5 43t-140.5 43q-35 0 -67.5 -29.5t-32.5 -56.5q0 -45 -43 -45h-78q-43 0 -43 45z" />
<glyph unicode="&#xd2;" d="M115 418v807q0 182 128 309t310 127h63q182 0 310.5 -127t128.5 -309v-807q0 -182 -128 -311.5t-311 -129.5h-63q-182 0 -310 129.5t-128 311.5zM242 2060q0 20 10 39l78 121q16 27 49 26q16 0 30 -10l429 -313q27 -18 26 -51q0 -17 -10 -29l-2 -4q-27 -39 -82 -17 l-504 195q-25 10 -24 43zM412 461q0 -88 53 -151.5t125 -63.5t123 62.5t51 152.5v710q0 92 -51 156t-123 64t-125 -64.5t-53 -155.5v-710z" />
<glyph unicode="&#xd3;" d="M115 418v807q0 182 128 309t310 127h63q182 0 310.5 -127t128.5 -309v-807q0 -182 -128 -311.5t-311 -129.5h-63q-182 0 -310 129.5t-128 311.5zM263 1891q0 33 26 51l428 313q14 10 31 10q33 0 51 -26l76 -121q10 -18 10 -39q0 -33 -24 -43l-504 -195q-55 -23 -82 17 l-2 4q-10 12 -10 29zM412 461q0 -88 53 -151.5t125 -63.5t123 62.5t51 152.5v710q0 92 -51 156t-123 64t-125 -64.5t-53 -155.5v-710z" />
<glyph unicode="&#xd4;" d="M115 418v807q0 182 128 309t310 127h63q182 0 310.5 -127t128.5 -309v-807q0 -182 -128 -311.5t-311 -129.5h-63q-182 0 -310 129.5t-128 311.5zM154 1849q0 20 26 53l236 285q25 29 53 29h215q29 0 49 -23l242 -287q25 -29 25 -49q0 -43 -95 -43h-114q-45 0 -76 39 l-113 135q-25 29 -49 0l-111 -133q-35 -41 -79 -41h-119q-90 0 -90 35zM412 461q0 -88 53 -151.5t125 -63.5t123 62.5t51 152.5v710q0 92 -51 156t-123 64t-125 -64.5t-53 -155.5v-710z" />
<glyph unicode="&#xd5;" d="M115 418v807q0 182 128 309t310 127h63q182 0 310.5 -127t128.5 -309v-807q0 -182 -128 -311.5t-311 -129.5h-63q-182 0 -310 129.5t-128 311.5zM182 1843q0 98 83 188.5t193 90.5q70 0 154 -45.5t117 -45.5q45 0 77.5 29t32.5 72t47 43h60q43 0 43 -43q0 -117 -60 -199 q-66 -90 -178 -90q-63 0 -164.5 43t-140.5 43q-35 0 -67.5 -29.5t-32.5 -56.5q0 -45 -43 -45h-78q-43 0 -43 45zM412 461q0 -88 53 -151.5t125 -63.5t123 62.5t51 152.5v710q0 92 -51 156t-123 64t-125 -64.5t-53 -155.5v-710z" />
<glyph unicode="&#xd6;" d="M115 418v807q0 182 128 309t310 127h63q182 0 310.5 -127t128.5 -309v-807q0 -182 -128 -311.5t-311 -129.5h-63q-182 0 -310 129.5t-128 311.5zM215 1899v190q0 55 59 55h174q59 0 60 -55v-190q0 -25 -18.5 -42.5t-41.5 -17.5h-174q-25 0 -42 17.5t-17 42.5zM412 461 q0 -88 53 -151.5t125 -63.5t123 62.5t51 152.5v710q0 92 -51 156t-123 64t-125 -64.5t-53 -155.5v-710zM673 1899v190q0 55 60 55h174q59 0 59 -55v-190q0 -25 -17.5 -42.5t-41.5 -17.5h-174q-23 0 -41.5 17.5t-18.5 42.5z" />
<glyph unicode="&#xd7;" horiz-adv-x="1013" d="M98 408q0 25 19 43l215 217l-215 217q-18 16 -19 41q0 25 19 43l92 92q14 14 39 14t43 -16l217 -217l215 217q16 16 43 16q25 0 41 -16l92 -92q16 -16 16 -41t-16 -41l-217 -217l217 -217q16 -16 16 -43q0 -25 -16 -41l-92 -93q-16 -16 -41 -16t-43 18l-215 218 l-217 -218q-16 -16 -43 -16q-25 0 -41 16l-92 93q-16 14 -17 39z" />
<glyph unicode="&#xd8;" d="M-4 27q0 12 8 24l133 228q-23 68 -22 139v807q0 182 128 309t310 127h63q154 0 273 -94l33 53q23 41 53 41h129q61 0 61 -49q0 -13 -6 -25l-129 -219q25 -70 25 -143v-807q0 -182 -128 -311.5t-311 -129.5h-63q-154 0 -274 97l-33 -56q-25 -41 -56 -41h-133q-61 0 -61 50 zM412 748l319 548q-51 94 -141 95q-72 0 -125 -64.5t-53 -155.5v-423zM438 348q53 -102 152 -102q72 0 123 62.5t51 152.5v446z" />
<glyph unicode="&#xd9;" horiz-adv-x="1173" d="M115 418v1167q0 53 51 53h176q53 0 53 -53v-1134q0 -90 57.5 -156t133.5 -66q74 0 130 65.5t56 156.5v1134q0 53 55 53h177q23 0 40 -16t17 -37v-1167q0 -180 -133 -310.5t-316 -130.5h-51q-182 0 -314 130.5t-132 310.5zM242 2060q0 20 10 39l78 121q16 27 49 26 q16 0 30 -10l429 -313q27 -18 26 -51q0 -17 -10 -29l-2 -4q-27 -39 -82 -17l-504 195q-25 10 -24 43z" />
<glyph unicode="&#xda;" horiz-adv-x="1173" d="M115 418v1167q0 53 51 53h176q53 0 53 -53v-1134q0 -90 57.5 -156t133.5 -66q74 0 130 65.5t56 156.5v1134q0 53 55 53h177q23 0 40 -16t17 -37v-1167q0 -180 -133 -310.5t-316 -130.5h-51q-182 0 -314 130.5t-132 310.5zM263 1891q0 33 26 51l428 313q14 10 31 10 q33 0 51 -26l76 -121q10 -18 10 -39q0 -33 -24 -43l-504 -195q-55 -23 -82 17l-2 4q-10 12 -10 29z" />
<glyph unicode="&#xdb;" horiz-adv-x="1173" d="M115 418v1167q0 53 51 53h176q53 0 53 -53v-1134q0 -90 57.5 -156t133.5 -66q74 0 130 65.5t56 156.5v1134q0 53 55 53h177q23 0 40 -16t17 -37v-1167q0 -180 -133 -310.5t-316 -130.5h-51q-182 0 -314 130.5t-132 310.5zM154 1849q0 20 26 53l236 285q25 29 53 29h215 q29 0 49 -23l242 -287q25 -29 25 -49q0 -43 -95 -43h-114q-45 0 -76 39l-113 135q-25 29 -49 0l-111 -133q-35 -41 -79 -41h-119q-90 0 -90 35z" />
<glyph unicode="&#xdc;" horiz-adv-x="1173" d="M115 418v1167q0 53 51 53h176q53 0 53 -53v-1134q0 -90 57.5 -156t133.5 -66q74 0 130 65.5t56 156.5v1134q0 53 55 53h177q23 0 40 -16t17 -37v-1167q0 -180 -133 -310.5t-316 -130.5h-51q-182 0 -314 130.5t-132 310.5zM215 1899v190q0 55 59 55h174q59 0 60 -55v-190 q0 -25 -18.5 -42.5t-41.5 -17.5h-174q-25 0 -42 17.5t-17 42.5zM673 1899v190q0 55 60 55h174q59 0 59 -55v-190q0 -25 -17.5 -42.5t-41.5 -17.5h-174q-23 0 -41.5 17.5t-18.5 42.5z" />
<glyph unicode="&#xdd;" horiz-adv-x="1280" d="M68 1599q0 39 49 39h198q35 0 56 -53l215 -553q12 -33 28 -33t29 33l178 553q16 53 53 53h201q45 0 45 -39q0 -8 -2 -14l-352 -909q-12 -29 -12 -49v-572q0 -55 -54 -55h-178q-55 0 -55 55v572q0 20 -12 49l-383 909q-4 6 -4 14zM287 1891q0 33 26 51l428 313 q14 10 31 10q33 0 51 -26l76 -121q10 -18 10 -39q0 -33 -24 -43l-504 -195q-55 -23 -82 17l-2 4q-10 12 -10 29z" />
<glyph unicode="&#xde;" horiz-adv-x="1146" d="M115 33v1573q0 55 51 55h176q57 0 57 -55v-234q0 -53 56 -53h143q182 0 308 -129t126 -311v-91q0 -182 -126 -310t-308 -128h-143q-55 0 -56 -55v-262q0 -55 -57 -56h-176q-51 0 -51 56zM403 649q0 -23 19.5 -38t40.5 -15h112q68 0 118 48t50 116v141q0 68 -49 115 t-119 47h-112q-20 0 -40 -15.5t-20 -37.5v-361z" />
<glyph unicode="&#xdf;" horiz-adv-x="1099" d="M41 31v1272q0 137 112.5 247.5t249.5 110.5h189q139 0 248.5 -106.5t109.5 -243.5v-135q0 -170 -102 -273q-23 -23 4 -37q133 -74 133 -307v-178q0 -166 -117.5 -285t-285.5 -119h-95q-53 0 -53 60v147q0 53 53 54h91q63 0 101 55t38 129v156q0 72 -43 119.5t-101 47.5 h-79q-53 0 -54 60v147q0 53 54 54h79q57 0 94.5 50t37.5 120v112q0 51 -38 88t-89 37h-138q-51 0 -88 -37t-37 -88v-1268q0 -43 -55 -43h-160q-23 0 -41 15.5t-18 38.5z" />
<glyph unicode="&#xe0;" horiz-adv-x="1075" d="M102 291v45q0 152 144 272q80 68 268 164q143 74 143 107v90q0 41 -28.5 70.5t-69.5 29.5h-88q-41 0 -70.5 -29.5t-29.5 -70.5v-33q0 -57 -58 -57h-137q-57 0 -57 57v41q0 127 91 212t220 85h168q129 0 219 -85t90 -212v-823q1 -27 21 -97q12 -57 -49 -57h-138 q-41 0 -56 53t-32 53q4 0 -77.5 -63t-163.5 -63q-143 0 -226.5 82.5t-83.5 228.5zM195 1624q0 20 10 39l78 121q16 27 49 26q16 0 30 -10l429 -313q27 -18 26 -51q0 -17 -10 -29l-2 -4q-27 -39 -82 -17l-504 195q-25 10 -24 43zM369 336q0 -102 98 -103q63 0 123 41 q67 46 67 107v197q0 41 -36 22q-123 -61 -166 -96q-86 -72 -86 -168z" />
<glyph unicode="&#xe1;" horiz-adv-x="1075" d="M102 291v45q0 152 144 272q80 68 268 164q143 74 143 107v90q0 41 -28.5 70.5t-69.5 29.5h-88q-41 0 -70.5 -29.5t-29.5 -70.5v-33q0 -57 -58 -57h-137q-57 0 -57 57v41q0 127 91 212t220 85h168q129 0 219 -85t90 -212v-823q1 -27 21 -97q12 -57 -49 -57h-138 q-41 0 -56 53t-32 53q4 0 -77.5 -63t-163.5 -63q-143 0 -226.5 82.5t-83.5 228.5zM195 1436q0 33 26 51l428 313q14 10 31 10q33 0 51 -26l76 -121q10 -18 10 -39q0 -33 -24 -43l-504 -195q-55 -23 -82 17l-2 4q-10 12 -10 29zM369 336q0 -102 98 -103q63 0 123 41 q67 46 67 107v197q0 41 -36 22q-123 -61 -166 -96q-86 -72 -86 -168z" />
<glyph unicode="&#xe2;" horiz-adv-x="1075" d="M97 1370q0 20 26 53l236 285q25 29 53 29h215q29 0 49 -23l242 -287q25 -29 25 -49q0 -43 -95 -43h-114q-45 0 -76 39l-113 135q-25 29 -49 0l-111 -133q-35 -41 -79 -41h-119q-90 0 -90 35zM102 291v45q0 152 144 272q80 68 268 164q143 74 143 107v90q0 41 -28.5 70.5 t-69.5 29.5h-88q-41 0 -70.5 -29.5t-29.5 -70.5v-33q0 -57 -58 -57h-137q-57 0 -57 57v41q0 127 91 212t220 85h168q129 0 219 -85t90 -212v-823q1 -27 21 -97q12 -57 -49 -57h-138q-41 0 -56 53t-32 53q4 0 -77.5 -63t-163.5 -63q-143 0 -226.5 82.5t-83.5 228.5zM369 336 q0 -102 98 -103q63 0 123 41q67 46 67 107v197q0 41 -36 22q-123 -61 -166 -96q-86 -72 -86 -168z" />
<glyph unicode="&#xe3;" horiz-adv-x="1075" d="M80 1409q0 98 83 188.5t193 90.5q70 0 154 -45.5t117 -45.5q45 0 77.5 29t32.5 72t47 43h60q43 0 43 -43q0 -117 -60 -199q-66 -90 -178 -90q-63 0 -164.5 43t-140.5 43q-35 0 -67.5 -29.5t-32.5 -56.5q0 -45 -43 -45h-78q-43 0 -43 45zM102 291v45q0 152 144 272 q80 68 268 164q143 74 143 107v90q0 41 -28.5 70.5t-69.5 29.5h-88q-41 0 -70.5 -29.5t-29.5 -70.5v-33q0 -57 -58 -57h-137q-57 0 -57 57v41q0 127 91 212t220 85h168q129 0 219 -85t90 -212v-823q1 -27 21 -97q12 -57 -49 -57h-138q-41 0 -56 53t-32 53q4 0 -77.5 -63 t-163.5 -63q-143 0 -226.5 82.5t-83.5 228.5zM369 336q0 -102 98 -103q63 0 123 41q67 46 67 107v197q0 41 -36 22q-123 -61 -166 -96q-86 -72 -86 -168z" />
<glyph unicode="&#xe4;" horiz-adv-x="1075" d="M102 291v45q0 152 144 272q80 68 268 164q143 74 143 107v90q0 41 -28.5 70.5t-69.5 29.5h-88q-41 0 -70.5 -29.5t-29.5 -70.5v-33q0 -57 -58 -57h-137q-57 0 -57 57v41q0 127 91 212t220 85h168q129 0 219 -85t90 -212v-823q1 -27 21 -97q12 -57 -49 -57h-138 q-41 0 -56 53t-32 53q4 0 -77.5 -63t-163.5 -63q-143 0 -226.5 82.5t-83.5 228.5zM115 1438v190q0 55 59 55h174q59 0 60 -55v-190q0 -25 -18.5 -42.5t-41.5 -17.5h-174q-25 0 -42 17.5t-17 42.5zM369 336q0 -102 98 -103q63 0 123 41q67 46 67 107v197q0 41 -36 22 q-123 -61 -166 -96q-86 -72 -86 -168zM573 1438v190q0 55 60 55h174q59 0 59 -55v-190q0 -25 -17.5 -42.5t-41.5 -17.5h-174q-23 0 -41.5 17.5t-18.5 42.5z" />
<glyph unicode="&#xe5;" horiz-adv-x="1075" d="M102 291v45q0 152 144 272q80 68 268 164q143 74 143 107v90q0 41 -28.5 70.5t-69.5 29.5h-88q-41 0 -70.5 -29.5t-29.5 -70.5v-33q0 -57 -58 -57h-137q-57 0 -57 57v41q0 127 91 212t220 85h168q129 0 219 -85t90 -212v-823q1 -27 21 -97q12 -57 -49 -57h-138 q-41 0 -56 53t-32 53q4 0 -77.5 -63t-163.5 -63q-143 0 -226.5 82.5t-83.5 228.5zM254 1567v94q0 84 58.5 142.5t142.5 58.5h102q84 0 143.5 -58.5t59.5 -142.5v-94q0 -84 -59.5 -143.5t-143.5 -59.5h-102q-84 0 -142.5 59.5t-58.5 143.5zM369 336q0 -102 98 -103 q63 0 123 41q67 46 67 107v197q0 41 -36 22q-123 -61 -166 -96q-86 -72 -86 -168zM389 1591q0 -37 25.5 -62.5t62.5 -25.5h60q37 0 63.5 25.5t26.5 62.5v51q0 37 -27 64t-63 27h-60q-37 0 -62.5 -27t-25.5 -64v-51z" />
<glyph unicode="&#xe6;" horiz-adv-x="1574" d="M115 291v45q0 152 143 272q80 68 268 164q143 74 144 107v90q0 41 -30 70.5t-69 29.5h-90q-39 0 -69.5 -29.5t-30.5 -70.5v-33q0 -57 -57 -57h-138q-55 0 -55 57v41q0 127 90 212t219 85h170q109 0 193 -62q80 61 186 62h150q139 0 231 -119q86 -115 86 -270v-271 q0 -57 -57 -57h-455q-27 0 -26 -18v-234q0 -35 30.5 -60.5t69.5 -25.5h84q43 0 72.5 31t29.5 72v20q0 57 58 57h141q57 0 57 -57q0 -160 -101.5 -262.5t-260.5 -102.5h-64q-186 0 -286 136q-27 37 -66 0q-143 -135 -260 -136q-141 0 -224 84t-83 230zM379 336 q0 -102 98 -103q63 0 128 43.5t65 104.5v197q0 41 -37 22q-125 -61 -168 -96q-86 -72 -86 -168zM918 782q0 -18 26 -18h242q28 0 28 27v147q0 43 -28.5 70.5t-69.5 27.5h-98q-39 0 -69.5 -22.5t-30.5 -57.5v-174z" />
<glyph unicode="&#xe7;" horiz-adv-x="1040" d="M115 350v561q0 154 108.5 258.5t263.5 104.5h66q156 0 264.5 -104.5t108.5 -258.5v-32q0 -55 -58 -56h-141q-57 0 -57 56q0 70 -42 119t-98 49q-57 0 -98 -49.5t-41 -118.5v-492q0 -72 38 -118t101 -46q59 0 99.5 46t40.5 118v8q0 57 57 58h141q57 0 58 -58v-45 q0 -156 -109.5 -264.5t-263.5 -108.5h-33v-108q31 0 94.5 7t94.5 7q164 0 163 -188q0 -115 -53 -158q-43 -37 -147 -37q-39 0 -148.5 8.5t-181.5 8.5q-45 0 -45 43v30q0 47 45 48q246 0 287 4q63 8 63 53q0 37 -78 47q-45 6 -186 6q-47 0 -47 47v197q-117 35 -191.5 133 t-74.5 225z" />
<glyph unicode="&#xe8;" horiz-adv-x="1019" d="M115 340v571q0 154 87 258.5t232 104.5h148q141 0 230 -117t89 -272v-271q0 -57 -57 -57h-455q-29 0 -29 -27v-208q0 -41 30 -72t71 -31h86q41 0 71.5 31t30.5 72v20q0 57 58 57h141q57 0 57 -57q0 -160 -101.5 -262.5t-262.5 -102.5h-64q-164 0 -263 101.5t-99 261.5z M195 1624q0 20 10 39l78 121q16 27 49 26q16 0 30 -10l429 -313q27 -18 26 -51q0 -17 -10 -29l-2 -4q-27 -39 -82 -17l-504 195q-25 10 -24 43zM360 791q0 -27 29 -27h242q26 0 26 27v147q0 43 -27.5 70.5t-70.5 27.5h-98q-41 0 -71 -27.5t-30 -70.5v-147z" />
<glyph unicode="&#xe9;" horiz-adv-x="1019" d="M115 340v571q0 154 87 258.5t232 104.5h148q141 0 230 -117t89 -272v-271q0 -57 -57 -57h-455q-29 0 -29 -27v-208q0 -41 30 -72t71 -31h86q41 0 71.5 31t30.5 72v20q0 57 58 57h141q57 0 57 -57q0 -160 -101.5 -262.5t-262.5 -102.5h-64q-164 0 -263 101.5t-99 261.5z M195 1436q0 33 26 51l428 313q14 10 31 10q33 0 51 -26l76 -121q10 -18 10 -39q0 -33 -24 -43l-504 -195q-55 -23 -82 17l-2 4q-10 12 -10 29zM360 791q0 -27 29 -27h242q26 0 26 27v147q0 43 -27.5 70.5t-70.5 27.5h-98q-41 0 -71 -27.5t-30 -70.5v-147z" />
<glyph unicode="&#xea;" horiz-adv-x="1019" d="M74 1370q0 20 26 53l236 285q25 29 53 29h215q29 0 49 -23l242 -287q25 -29 25 -49q0 -43 -95 -43h-114q-45 0 -76 39l-113 135q-25 29 -49 0l-111 -133q-35 -41 -79 -41h-119q-90 0 -90 35zM115 340v571q0 154 87 258.5t232 104.5h148q141 0 230 -117t89 -272v-271 q0 -57 -57 -57h-455q-29 0 -29 -27v-208q0 -41 30 -72t71 -31h86q41 0 71.5 31t30.5 72v20q0 57 58 57h141q57 0 57 -57q0 -160 -101.5 -262.5t-262.5 -102.5h-64q-164 0 -263 101.5t-99 261.5zM360 791q0 -27 29 -27h242q26 0 26 27v147q0 43 -27.5 70.5t-70.5 27.5h-98 q-41 0 -71 -27.5t-30 -70.5v-147z" />
<glyph unicode="&#xeb;" horiz-adv-x="1019" d="M115 340v571q0 154 87 258.5t232 104.5h148q141 0 230 -117t89 -272v-271q0 -57 -57 -57h-455q-29 0 -29 -27v-208q0 -41 30 -72t71 -31h86q41 0 71.5 31t30.5 72v20q0 57 58 57h141q57 0 57 -57q0 -160 -101.5 -262.5t-262.5 -102.5h-64q-164 0 -263 101.5t-99 261.5z M115 1438v190q0 55 59 55h174q59 0 60 -55v-190q0 -25 -18.5 -42.5t-41.5 -17.5h-174q-25 0 -42 17.5t-17 42.5zM360 791q0 -27 29 -27h242q26 0 26 27v147q0 43 -27.5 70.5t-70.5 27.5h-98q-41 0 -71 -27.5t-30 -70.5v-147zM573 1438v190q0 55 60 55h174q59 0 59 -55v-190 q0 -25 -17.5 -42.5t-41.5 -17.5h-174q-23 0 -41.5 17.5t-18.5 42.5z" />
<glyph unicode="&#xec;" horiz-adv-x="483" d="M-57 1624q0 20 10 39l78 121q16 27 49 26q16 0 30 -10l429 -313q27 -18 26 -51q0 -17 -10 -29l-2 -4q-27 -39 -82 -17l-504 195q-25 10 -24 43zM137 57v1137q0 57 58 57h141q57 0 57 -57v-1137q0 -57 -57 -57h-141q-57 0 -58 57z" />
<glyph unicode="&#xed;" horiz-adv-x="483" d="M-43 1436q0 33 26 51l428 313q14 10 31 10q33 0 51 -26l76 -121q10 -18 10 -39q0 -33 -24 -43l-504 -195q-55 -23 -82 17l-2 4q-10 12 -10 29zM137 57v1137q0 57 58 57h141q57 0 57 -57v-1137q0 -57 -57 -57h-141q-57 0 -58 57z" />
<glyph unicode="&#xee;" horiz-adv-x="483" d="M-155 1370q0 20 26 53l236 285q25 29 53 29h215q29 0 49 -23l242 -287q25 -29 25 -49q0 -43 -95 -43h-114q-45 0 -76 39l-113 135q-25 29 -49 0l-111 -133q-35 -41 -79 -41h-119q-90 0 -90 35zM137 57v1137q0 57 58 57h141q57 0 57 -57v-1137q0 -57 -57 -57h-141 q-57 0 -58 57z" />
<glyph unicode="&#xef;" horiz-adv-x="483" d="M-106 1438v190q0 55 59 55h174q59 0 60 -55v-190q0 -25 -18.5 -42.5t-41.5 -17.5h-174q-25 0 -42 17.5t-17 42.5zM137 57v1137q0 57 58 57h141q57 0 57 -57v-1137q0 -57 -57 -57h-141q-57 0 -58 57zM352 1438v190q0 55 60 55h174q59 0 59 -55v-190q0 -25 -17.5 -42.5 t-41.5 -17.5h-174q-23 0 -41.5 17.5t-18.5 42.5z" />
<glyph unicode="&#xf1;" horiz-adv-x="1011" d="M80 1409q0 98 83 188.5t193 90.5q70 0 154 -45.5t117 -45.5q45 0 77.5 29t32.5 72t47 43h60q43 0 43 -43q0 -117 -60 -199q-66 -90 -178 -90q-63 0 -164.5 43t-140.5 43q-35 0 -67.5 -29.5t-32.5 -56.5q0 -45 -43 -45h-78q-43 0 -43 45zM115 57v1137q0 57 57 57h145 q57 0 58 -57v-27q0 -23 12 -22q14 0 37 24q100 104 246 105q100 0 163.5 -66.5t63.5 -171.5v-979q0 -57 -55 -57h-146q-57 0 -57 57v881q0 106 -86 106q-59 0 -118.5 -43t-59.5 -86v-858q0 -57 -58 -57h-145q-57 0 -57 57z" />
<glyph unicode="&#xf2;" horiz-adv-x="985" d="M115 311v633q0 137 97 233.5t237 96.5h88q139 0 236 -96.5t97 -233.5v-633q0 -139 -98 -236.5t-235 -97.5h-88q-139 0 -236.5 97.5t-97.5 236.5zM172 1624q0 20 10 39l78 121q16 27 49 26q16 0 30 -10l429 -313q27 -18 26 -51q0 -17 -10 -29l-2 -4q-27 -39 -82 -17 l-504 195q-25 10 -24 43zM362 315q0 -43 34 -76.5t77 -33.5h47q43 0 74 32.5t31 77.5v619q0 45 -31 76.5t-74 31.5h-47q-45 0 -78 -31.5t-33 -76.5v-619z" />
<glyph unicode="&#xf3;" horiz-adv-x="985" d="M115 311v633q0 137 97 233.5t237 96.5h88q139 0 236 -96.5t97 -233.5v-633q0 -139 -98 -236.5t-235 -97.5h-88q-139 0 -236.5 97.5t-97.5 236.5zM195 1436q0 33 26 51l428 313q14 10 31 10q33 0 51 -26l76 -121q10 -18 10 -39q0 -33 -24 -43l-504 -195q-55 -23 -82 17 l-2 4q-10 12 -10 29zM362 315q0 -43 34 -76.5t77 -33.5h47q43 0 74 32.5t31 77.5v619q0 45 -31 76.5t-74 31.5h-47q-45 0 -78 -31.5t-33 -76.5v-619z" />
<glyph unicode="&#xf4;" horiz-adv-x="985" d="M74 1370q0 20 26 53l236 285q25 29 53 29h215q29 0 49 -23l242 -287q25 -29 25 -49q0 -43 -95 -43h-114q-45 0 -76 39l-113 135q-25 29 -49 0l-111 -133q-35 -41 -79 -41h-119q-90 0 -90 35zM115 311v633q0 137 97 233.5t237 96.5h88q139 0 236 -96.5t97 -233.5v-633 q0 -139 -98 -236.5t-235 -97.5h-88q-139 0 -236.5 97.5t-97.5 236.5zM362 315q0 -43 34 -76.5t77 -33.5h47q43 0 74 32.5t31 77.5v619q0 45 -31 76.5t-74 31.5h-47q-45 0 -78 -31.5t-33 -76.5v-619z" />
<glyph unicode="&#xf5;" horiz-adv-x="985" d="M80 1409q0 98 83 188.5t193 90.5q70 0 154 -45.5t117 -45.5q45 0 77.5 29t32.5 72t47 43h60q43 0 43 -43q0 -117 -60 -199q-66 -90 -178 -90q-63 0 -164.5 43t-140.5 43q-35 0 -67.5 -29.5t-32.5 -56.5q0 -45 -43 -45h-78q-43 0 -43 45zM115 311v633q0 137 97 233.5 t237 96.5h88q139 0 236 -96.5t97 -233.5v-633q0 -139 -98 -236.5t-235 -97.5h-88q-139 0 -236.5 97.5t-97.5 236.5zM362 315q0 -43 34 -76.5t77 -33.5h47q43 0 74 32.5t31 77.5v619q0 45 -31 76.5t-74 31.5h-47q-45 0 -78 -31.5t-33 -76.5v-619z" />
<glyph unicode="&#xf6;" horiz-adv-x="985" d="M115 311v633q0 137 97 233.5t237 96.5h88q139 0 236 -96.5t97 -233.5v-633q0 -139 -98 -236.5t-235 -97.5h-88q-139 0 -236.5 97.5t-97.5 236.5zM115 1438v190q0 55 59 55h174q59 0 60 -55v-190q0 -25 -18.5 -42.5t-41.5 -17.5h-174q-25 0 -42 17.5t-17 42.5zM362 315 q0 -43 34 -76.5t77 -33.5h47q43 0 74 32.5t31 77.5v619q0 45 -31 76.5t-74 31.5h-47q-45 0 -78 -31.5t-33 -76.5v-619zM573 1438v190q0 55 60 55h174q59 0 59 -55v-190q0 -25 -17.5 -42.5t-41.5 -17.5h-174q-23 0 -41.5 17.5t-18.5 42.5z" />
<glyph unicode="&#xf7;" horiz-adv-x="1132" d="M115 596v135q0 59 55 60h793q57 0 57 -60v-135q0 -53 -57 -53h-793q-55 0 -55 53zM406 119v192q0 53 59 54h174q59 0 59 -54v-192q0 -23 -18 -41.5t-41 -18.5h-174q-25 0 -42 18.5t-17 41.5zM406 1006v192q0 53 59 53h174q59 0 59 -53v-192q0 -25 -18 -42.5t-41 -17.5 h-174q-25 0 -42 17.5t-17 42.5z" />
<glyph unicode="&#xf8;" horiz-adv-x="985" d="M-4 27q0 12 8 24l117 191q-6 33 -6 69v633q0 137 97 233.5t237 96.5h88q104 0 190 -57l10 16q27 41 56 41h127q63 0 63 -49q0 -13 -8 -23l-113 -184q8 -37 8 -74v-633q0 -139 -98 -236.5t-235 -97.5h-88q-104 0 -191 60l-12 -19q-25 -41 -56 -41h-133q-61 0 -61 50z M362 631l236 377q-31 35 -78 34h-47q-45 0 -78 -31.5t-33 -76.5v-303zM387 248q35 -43 86 -43h47q43 0 74 32.5t31 77.5v316z" />
<glyph unicode="&#xf9;" horiz-adv-x="1007" d="M115 201v993q0 57 57 57h145q57 0 58 -57v-836q0 -121 112 -120q49 0 98.5 38.5t49.5 85.5v832q0 57 57 57h144q57 0 57 -57v-1137q0 -57 -57 -57h-146q-35 0 -55.5 49t-48.5 49q-20 0 -81 -60.5t-118 -60.5h-76q-74 0 -135 72t-61 152zM195 1624q0 20 10 39l78 121 q16 27 49 26q16 0 30 -10l429 -313q27 -18 26 -51q0 -17 -10 -29l-2 -4q-27 -39 -82 -17l-504 195q-25 10 -24 43z" />
<glyph unicode="&#xfa;" horiz-adv-x="1007" d="M115 201v993q0 57 57 57h145q57 0 58 -57v-836q0 -121 112 -120q49 0 98.5 38.5t49.5 85.5v832q0 57 57 57h144q57 0 57 -57v-1137q0 -57 -57 -57h-146q-35 0 -55.5 49t-48.5 49q-20 0 -81 -60.5t-118 -60.5h-76q-74 0 -135 72t-61 152zM195 1436q0 33 26 51l428 313 q14 10 31 10q33 0 51 -26l76 -121q10 -18 10 -39q0 -33 -24 -43l-504 -195q-55 -23 -82 17l-2 4q-10 12 -10 29z" />
<glyph unicode="&#xfb;" horiz-adv-x="1007" d="M74 1370q0 20 26 53l236 285q25 29 53 29h215q29 0 49 -23l242 -287q25 -29 25 -49q0 -43 -95 -43h-114q-45 0 -76 39l-113 135q-25 29 -49 0l-111 -133q-35 -41 -79 -41h-119q-90 0 -90 35zM115 201v993q0 57 57 57h145q57 0 58 -57v-836q0 -121 112 -120 q49 0 98.5 38.5t49.5 85.5v832q0 57 57 57h144q57 0 57 -57v-1137q0 -57 -57 -57h-146q-35 0 -55.5 49t-48.5 49q-20 0 -81 -60.5t-118 -60.5h-76q-74 0 -135 72t-61 152z" />
<glyph unicode="&#xfc;" horiz-adv-x="1007" d="M115 201v993q0 57 57 57h145q57 0 58 -57v-836q0 -121 112 -120q49 0 98.5 38.5t49.5 85.5v832q0 57 57 57h144q57 0 57 -57v-1137q0 -57 -57 -57h-146q-35 0 -55.5 49t-48.5 49q-20 0 -81 -60.5t-118 -60.5h-76q-74 0 -135 72t-61 152zM115 1438v190q0 55 59 55h174 q59 0 60 -55v-190q0 -25 -18.5 -42.5t-41.5 -17.5h-174q-25 0 -42 17.5t-17 42.5zM573 1438v190q0 55 60 55h174q59 0 59 -55v-190q0 -25 -17.5 -42.5t-41.5 -17.5h-174q-23 0 -41.5 17.5t-18.5 42.5z" />
<glyph unicode="&#xfd;" horiz-adv-x="1107" d="M45 1198q0 53 57 53h140q16 0 33.5 -14t21.5 -29l164 -747q8 -33 20 -33t21 33l157 747q8 43 54 43h137q57 0 57 -53q0 -8 -2 -18l-291 -1127q-68 -268 -178 -358q-78 -63 -229 -64h-86q-57 0 -58 58v129q0 57 58 57h37q82 0 129 64q41 55 41 122v17l-281 1104 q-2 8 -2 16zM195 1436q0 33 26 51l428 313q14 10 31 10q33 0 51 -26l76 -121q10 -18 10 -39q0 -33 -24 -43l-504 -195q-55 -23 -82 17l-2 4q-10 12 -10 29z" />
<glyph unicode="&#xfe;" horiz-adv-x="1005" d="M115 -311v1915q0 57 57 57h150q57 0 57 -57v-365q0 -45 37 -45q12 0 68.5 40t127.5 40q121 0 200 -91t79 -231v-639q0 -147 -72 -237q-76 -98 -207 -99q-61 0 -119.5 38t-68.5 38q-45 0 -45 -45v-319q0 -57 -57 -58h-150q-57 0 -57 58zM379 295q0 -37 49 -69.5t102 -32.5 q97 0 97 106v649q0 106 -95 107q-53 0 -103 -33t-50 -68v-659z" />
<glyph unicode="&#xff;" horiz-adv-x="1107" d="M45 1198q0 53 57 53h140q16 0 33.5 -14t21.5 -29l164 -747q8 -33 20 -33t21 33l157 747q8 43 54 43h137q57 0 57 -53q0 -8 -2 -18l-291 -1127q-68 -268 -178 -358q-78 -63 -229 -64h-86q-57 0 -58 58v129q0 57 58 57h37q82 0 129 64q41 55 41 122v17l-281 1104 q-2 8 -2 16zM138 1438v190q0 55 59 55h174q59 0 60 -55v-190q0 -25 -18.5 -42.5t-41.5 -17.5h-174q-25 0 -42 17.5t-17 42.5zM596 1438v190q0 55 60 55h174q59 0 59 -55v-190q0 -25 -17.5 -42.5t-41.5 -17.5h-174q-23 0 -41.5 17.5t-18.5 42.5z" />
<glyph unicode="&#x152;" horiz-adv-x="1693" d="M115 440v762q0 180 128 308t310 128h946q59 0 60 -57v-143q0 -25 -18.5 -42.5t-41.5 -17.5h-385q-59 0 -59 -57v-279q0 -55 59 -55h291q59 0 59 -57v-139q0 -25 -17 -42.5t-42 -17.5h-291q-59 0 -59 -57v-346q0 -57 59 -58h406q23 0 41 -18.5t18 -40.5v-152 q0 -25 -18.5 -42t-40.5 -17h-967q-182 0 -310 129t-128 311zM412 483q0 -88 52 -150.5t124 -62.5h112q60 1 60 58v993q0 57 -60 57h-112q-72 0 -124 -62.5t-52 -152.5v-680z" />
<glyph unicode="&#x153;" horiz-adv-x="1527" d="M115 311v633q0 137 97 233.5t237 96.5h88q117 0 206 -72q84 72 201 72h148q141 0 229 -117t88 -272v-271q0 -57 -57 -57h-455q-27 0 -27 -27v-208q0 -41 30 -72t71 -31h84q43 0 73.5 31t30.5 72v20q0 57 55 57h144q55 0 55 -57q0 -160 -100.5 -262.5t-261.5 -102.5h-64 q-141 0 -237 78q-92 -78 -213 -78h-88q-139 0 -236.5 97.5t-97.5 236.5zM362 315q0 -43 34 -76.5t77 -33.5h47q43 0 74 32.5t31 77.5v619q0 45 -31 76.5t-74 31.5h-47q-45 0 -78 -31.5t-33 -76.5v-619zM870 791q0 -27 27 -27h244q26 0 26 27v147q0 43 -27.5 70.5t-70.5 27.5 h-98q-43 0 -72 -27.5t-29 -70.5v-147z" />
<glyph unicode="&#x178;" horiz-adv-x="1280" d="M68 1599q0 39 49 39h198q35 0 56 -53l215 -553q12 -33 28 -33t29 33l178 553q16 53 53 53h201q45 0 45 -39q0 -8 -2 -14l-352 -909q-12 -29 -12 -49v-572q0 -55 -54 -55h-178q-55 0 -55 55v572q0 20 -12 49l-383 909q-4 6 -4 14zM217 1899v190q0 55 59 55h174 q59 0 60 -55v-190q0 -25 -18.5 -42.5t-41.5 -17.5h-174q-25 0 -42 17.5t-17 42.5zM675 1899v190q0 55 60 55h174q59 0 59 -55v-190q0 -25 -17.5 -42.5t-41.5 -17.5h-174q-23 0 -41.5 17.5t-18.5 42.5z" />
<glyph unicode="&#x2c6;" horiz-adv-x="993" d="M74 1370q0 20 26 53l236 285q25 29 53 29h215q29 0 49 -23l242 -287q25 -29 25 -49q0 -43 -95 -43h-114q-45 0 -76 39l-113 135q-25 29 -49 0l-111 -133q-35 -41 -79 -41h-119q-90 0 -90 35z" />
<glyph unicode="&#x2dc;" horiz-adv-x="921" d="M80 1409q0 98 83 188.5t193 90.5q70 0 154 -45.5t117 -45.5q45 0 77.5 29t32.5 72t47 43h60q43 0 43 -43q0 -117 -60 -199q-66 -90 -178 -90q-63 0 -164.5 43t-140.5 43q-35 0 -67.5 -29.5t-32.5 -56.5q0 -45 -43 -45h-78q-43 0 -43 45z" />
<glyph unicode="&#x2000;" horiz-adv-x="1139" />
<glyph unicode="&#x2001;" horiz-adv-x="2278" />
<glyph unicode="&#x2002;" horiz-adv-x="1139" />
<glyph unicode="&#x2003;" horiz-adv-x="2278" />
<glyph unicode="&#x2004;" horiz-adv-x="759" />
<glyph unicode="&#x2005;" horiz-adv-x="569" />
<glyph unicode="&#x2006;" horiz-adv-x="379" />
<glyph unicode="&#x2007;" horiz-adv-x="379" />
<glyph unicode="&#x2008;" horiz-adv-x="284" />
<glyph unicode="&#x2009;" horiz-adv-x="455" />
<glyph unicode="&#x200a;" horiz-adv-x="126" />
<glyph unicode="&#x2010;" horiz-adv-x="1064" d="M115 596v135q0 59 55 60h723q57 0 57 -60v-135q0 -53 -57 -53h-723q-55 0 -55 53z" />
<glyph unicode="&#x2011;" horiz-adv-x="1064" d="M115 596v135q0 59 55 60h723q57 0 57 -60v-135q0 -53 -57 -53h-723q-55 0 -55 53z" />
<glyph unicode="&#x2012;" horiz-adv-x="1064" d="M115 596v135q0 59 55 60h723q57 0 57 -60v-135q0 -53 -57 -53h-723q-55 0 -55 53z" />
<glyph unicode="&#x2013;" horiz-adv-x="1009" d="M115 596v135q0 59 55 60h668q57 0 57 -60v-135q0 -53 -57 -53h-668q-55 0 -55 53z" />
<glyph unicode="&#x2014;" horiz-adv-x="1503" d="M115 596v135q0 59 55 60h1161q57 0 58 -60v-135q0 -53 -58 -53h-1161q-55 0 -55 53z" />
<glyph unicode="&#x2018;" horiz-adv-x="516" d="M115 1112v193q0 18 28 84l97 217q25 55 59 55h29q25 0 44 -17.5t11 -37.5l-74 -215q-12 -31 35 -31q57 0 57 -55v-193q0 -55 -57 -55h-170q-59 0 -59 55z" />
<glyph unicode="&#x2019;" horiz-adv-x="516" d="M115 1413v193q0 55 57 55h170q59 0 59 -55v-193q0 -18 -28 -84l-97 -217q-25 -55 -59 -55h-27q-27 0 -46 17.5t-11 37.5l76 215q10 33 -37 33q-57 0 -57 53z" />
<glyph unicode="&#x201a;" horiz-adv-x="516" d="M115 55v191q0 55 57 55h170q59 0 59 -55v-191q0 -20 -28 -86l-97 -215q-25 -55 -59 -55h-27q-27 0 -46 16.5t-11 38.5l76 213q10 33 -37 33q-57 0 -57 55z" />
<glyph unicode="&#x201c;" horiz-adv-x="942" d="M115 1112v193q0 18 28 84l97 217q25 55 59 55h29q25 0 44 -17.5t11 -37.5l-74 -215q-12 -31 35 -31q57 0 57 -55v-193q0 -55 -57 -55h-170q-59 0 -59 55zM539 1112v193q0 18 30 84l97 217q25 55 59 55h27q25 0 44 -17.5t13 -37.5l-76 -215q-10 -31 37 -31q57 0 57 -55 v-193q0 -55 -57 -55h-172q-59 0 -59 55z" />
<glyph unicode="&#x201d;" horiz-adv-x="942" d="M115 1413v193q0 55 57 55h170q59 0 59 -55v-193q0 -18 -28 -84l-97 -217q-25 -55 -59 -55h-27q-27 0 -46 17.5t-11 37.5l76 215q10 33 -37 33q-57 0 -57 53zM539 1413v193q0 55 57 55h172q59 0 59 -55v-193q0 -18 -28 -84l-99 -217q-23 -55 -59 -55h-27q-25 0 -44 17.5 t-13 37.5l76 215q10 33 -37 33q-57 0 -57 53z" />
<glyph unicode="&#x201e;" horiz-adv-x="942" d="M115 55v191q0 55 57 55h170q59 0 59 -55v-191q0 -20 -28 -86l-97 -215q-25 -55 -59 -55h-27q-27 0 -46 16.5t-11 38.5l76 213q10 33 -37 33q-57 0 -57 55zM539 55v191q0 55 57 55h172q59 0 59 -55v-191q0 -20 -28 -86l-99 -215q-23 -55 -59 -55h-27q-25 0 -44 16.5 t-13 38.5l76 213q10 33 -37 33q-57 0 -57 55z" />
<glyph unicode="&#x2022;" horiz-adv-x="987" d="M115 684q0 156 110.5 267.5t268.5 111.5t268 -111.5t110 -267.5q0 -158 -110.5 -269.5t-267.5 -111.5q-158 0 -268.5 111.5t-110.5 269.5z" />
<glyph unicode="&#x2026;" horiz-adv-x="1380" d="M115 59v193q0 53 59 53h174q59 0 60 -53v-193q0 -23 -18.5 -41t-41.5 -18h-174q-25 0 -42 18.5t-17 40.5zM543 59v193q0 53 59 53h174q59 0 60 -53v-193q0 -23 -17.5 -41t-42.5 -18h-174q-23 0 -41 18.5t-18 40.5zM973 59v193q0 53 59 53h174q59 0 60 -53v-193 q0 -23 -18.5 -41t-41.5 -18h-174q-23 0 -41 18.5t-18 40.5z" />
<glyph unicode="&#x202f;" horiz-adv-x="455" />
<glyph unicode="&#x2039;" horiz-adv-x="671" d="M98 651q0 25 17 41l288 291q41 39 84 0l70 -68q16 -14 16 -41q0 -25 -16 -40l-162 -160q-23 -23 0 -45l162 -162q39 -39 0 -80l-65 -72q-16 -16 -41 -16t-41 16l-295 295q-16 16 -17 41z" />
<glyph unicode="&#x203a;" horiz-adv-x="671" d="M98 874q0 27 17 41l69 68q43 39 84 0l289 -291q16 -16 16 -41t-16 -41l-295 -295q-16 -16 -41 -16t-41 16l-65 72q-39 41 0 80l161 162q23 23 0 45l-161 160q-16 16 -17 40z" />
<glyph unicode="&#x205f;" horiz-adv-x="569" />
<glyph unicode="&#x2122;" horiz-adv-x="2648" d="M115 1468v117q0 53 55 53h860q57 0 57 -53v-117q0 -55 -57 -55h-252q-18 0 -35.5 -16.5t-17.5 -36.5v-621q0 -53 -53 -53h-144q-55 0 -55 53v621q0 53 -53 53h-250q-55 0 -55 55zM1294 739v846q0 53 54 53h292q35 0 62 -61l180 -430q14 -35 27 -35q12 0 26 35l166 438 q20 53 56 53h299q55 0 55 -53v-846q0 -53 -55 -53h-136q-57 0 -57 53v514q0 20 -12 21q-12 0 -21 -21l-223 -514q-23 -53 -53 -53h-94q-33 0 -56 53l-215 518q-8 20 -22 21q-18 0 -19 -21v-518q0 -53 -57 -53h-143q-53 0 -54 53z" />
<glyph unicode="&#x25fc;" horiz-adv-x="1249" d="M0 0v1249h1249v-1249h-1249z" />
</font>
</defs>
</svg>
